<svg width="257" height="186" viewBox="0 0 257 186" fill="none" xmlns="http://www.w3.org/2000/svg">
<path d="M78.0979 74.7058L79.7052 73.9375L94.0036 77.4525L112.1 93.6938L118.82 91.8922L127.626 82.7073C127.626 82.7073 143.514 82.7603 150.764 89.2604C151.312 89.2692 155.383 91.901 157.441 94.7006C159.499 97.5002 160.956 98.5335 162.979 101.739C165.001 104.945 167.297 108.46 168.516 111.843C169.735 115.225 172.102 122.087 172.693 124.49C173.285 126.892 173.939 131.802 173.939 131.802L160.603 162.404H60.417L78.0979 74.7058Z" fill="white"/>
<path d="M129.507 158.393C128.994 158.393 128.482 158.393 127.961 158.393C127.917 158.473 127.873 158.552 127.829 158.632C128.173 158.906 128.509 159.215 128.88 159.453C133.914 162.783 138.612 166.51 142.436 171.208C143.929 173.036 145.121 175.112 146.446 177.072C146.481 177.125 146.525 177.178 146.525 177.231C146.543 177.841 146.799 178.697 146.499 178.998C146.19 179.316 145.262 179.289 144.741 179.077C143.425 178.53 142.189 177.805 140.926 177.134C140.352 176.825 139.796 176.481 139.23 176.154C139.168 176.216 139.107 176.269 139.045 176.33C139.363 176.816 139.698 177.293 139.981 177.797C141.032 179.678 142.101 181.55 143.063 183.466C143.249 183.846 143.187 184.729 142.948 184.853C142.524 185.083 141.774 185.118 141.359 184.879C139.707 183.979 138.1 182.981 136.545 181.93C135.309 181.1 134.161 180.128 132.978 179.227C132.748 179.059 132.509 178.909 132.271 178.75C132.209 178.803 132.147 178.856 132.086 178.909C132.509 179.722 132.978 180.517 133.348 181.356C133.764 182.265 134.187 183.193 134.417 184.155C134.523 184.588 134.302 185.233 134.002 185.586C133.825 185.789 133.11 185.763 132.792 185.577C131.194 184.65 129.639 183.643 128.094 182.636C127.263 182.098 126.469 181.506 125.497 181.073C125.753 181.762 126.018 182.451 126.265 183.148C126.371 183.458 126.486 183.784 126.513 184.111C126.583 185.18 126.027 185.621 125.056 185.18C123.068 184.279 121.064 183.396 119.165 182.327C115.155 180.075 111.216 177.708 106.88 176.119C103.321 174.811 99.6735 173.919 95.9289 173.345C89.4906 172.365 83.0082 172.038 76.517 171.862C70.0081 171.676 63.4904 171.553 56.9815 171.349C54.2172 171.261 51.444 171.102 48.7769 170.219C45.3061 169.071 42.6831 166.845 40.6341 163.896C39.9894 162.968 39.4065 162.006 38.8678 161.016C38.5764 160.487 38.2584 160.372 37.6932 160.451C36.4303 160.637 35.1585 160.822 33.878 160.866C33.0036 160.902 32.1028 160.787 31.2638 160.557C30.7957 160.434 30.2747 160.019 30.0362 159.595C28.5878 157.007 27.7223 154.181 27.1394 151.293C26.8745 149.995 26.8215 148.652 26.6978 147.327C26.5036 145.075 27.4044 143.23 28.8969 141.64C29.524 140.978 30.1863 140.324 30.937 139.821C31.6524 139.335 31.9262 138.787 31.9262 137.939C31.9438 131.907 32.9241 125.999 34.2842 120.135C35.8916 113.211 38.0111 106.455 40.9874 99.9988C44.2904 92.8276 48.4501 86.2392 54.5439 81.055C58.9597 77.2928 63.9761 74.7581 69.7608 73.7954C74.1589 73.0624 78.5129 73.1772 82.8316 74.1575C86.4172 74.97 89.9499 76.0122 93.5178 76.9218C93.8799 77.0102 94.3745 76.9572 94.6836 76.7717C96.4234 75.7031 98.2074 74.6786 99.7971 73.4157C100.548 72.8151 101.051 71.7907 101.431 70.8545C102.659 67.8429 103.771 64.7872 104.937 61.7491C105.193 61.0867 104.708 61.0161 104.284 60.8218C102.853 60.1771 101.351 59.6207 100.027 58.7905C98.0308 57.5364 96.5206 55.8054 95.7081 53.5181C94.1449 49.1464 97.6334 44.3332 102.217 44.607C102.871 44.6423 103.515 44.8542 104.381 45.022C104.31 43.8828 104.328 42.8583 104.16 41.8603C103.763 39.4758 102.968 37.2061 101.846 35.06C99.5763 30.706 101.793 26.2814 105.388 24.1529C108.081 22.5632 110.872 22.5279 113.663 24.0205C113.901 24.1441 114.148 24.2589 114.431 24.3914C114.555 24.1883 114.705 24.0293 114.776 23.835C115.712 21.2385 117.681 19.9844 120.242 19.2249C123.042 18.3947 126.901 19.9932 128.412 22.5191C128.774 23.1285 128.765 23.4641 128.182 23.941C126.884 25.0184 126.142 26.5021 125.621 28.083C125.55 28.3038 125.736 28.6041 125.806 28.869C126.018 28.7012 126.31 28.5776 126.442 28.3656C127.157 27.2087 127.634 25.8486 128.553 24.9036C131.185 22.2011 137.791 22.104 140.105 27.456C141.906 31.6156 140.74 36.7556 136.616 38.7781C136.36 38.9017 136.095 39.3433 136.095 39.6259C136.122 43.7415 136.13 47.8923 137.287 51.8665C137.897 53.942 139.009 55.8761 139.946 57.8544C140.749 59.5677 141.553 61.2722 141.641 63.2063C141.8 66.8185 139.778 69.1677 136.916 70.8545C134.276 72.4177 131.317 72.7003 128.323 72.1704C126.742 71.8878 125.215 71.3491 123.66 70.9252C123.492 70.881 123.316 70.8545 123.113 70.8192C123.051 70.9693 122.962 71.0753 122.971 71.1813C123.007 73.4068 123.007 75.6324 123.139 77.8492C123.174 78.4055 123.616 78.9796 123.987 79.4565C124.27 79.8363 124.773 80.0482 125.1 80.4015C126.575 82 128.35 82.3444 130.505 82.3268C140.758 82.2385 149.395 86.1509 156.62 93.3221C162.104 98.7712 166.017 105.254 169.046 112.31C171.386 117.759 173.011 123.42 173.983 129.267C174.045 129.638 173.894 130.035 173.841 130.424C173.762 130.415 173.691 130.415 173.612 130.406C173.356 129.143 173.108 127.871 172.852 126.608C171.748 121.098 170 115.79 167.642 110.685C164.745 104.415 161.097 98.6476 156.187 93.7461C151.639 89.2154 146.357 85.8948 140.14 84.1549C136.413 83.1128 132.598 82.7772 128.729 82.9627C128.12 82.9892 127.961 83.2541 127.988 83.8282C128.208 88.7474 127.917 93.6489 126.946 98.4798C126.681 99.8046 126.168 101.112 125.55 102.313C124.844 103.69 123.598 103.947 122.565 102.834C121.514 101.695 120.843 101.818 119.527 102.534C117.036 103.894 114.343 103.682 111.808 102.392C111.172 102.065 110.881 102.207 110.43 102.675C109.653 103.479 108.85 104.3 107.905 104.883C106.695 105.633 105.838 105.527 105.008 104.397C103.701 102.613 102.411 100.767 101.475 98.7801C99.8589 95.3446 98.4371 91.8119 97.0682 88.2616C95.8229 85.0293 94.7631 81.7262 93.6327 78.4497C93.4295 77.8403 93.1822 77.3634 92.4845 77.1956C88.5191 76.2418 84.5626 75.2792 80.606 74.3165C80.5265 74.2988 80.4294 74.3253 80.2086 74.343C80.4824 74.5815 80.6502 74.7934 80.871 74.9171C84.6421 76.9925 86.9118 80.322 88.528 84.1638C90.9478 89.922 91.5396 96.007 91.3983 102.171C91.2746 107.329 90.6741 112.434 89.7556 117.521C88.7664 122.979 87.4859 128.357 85.8608 133.656C85.693 134.195 85.7284 134.469 86.3024 134.707C87.7066 135.272 88.4132 136.367 88.2365 137.878C88.0864 139.202 87.8656 140.527 87.5565 141.825C87.2562 143.097 87.2739 143.212 88.528 143.45C88.7929 143.503 89.0579 143.583 89.3228 143.654C90.0382 143.848 90.6034 143.751 91.2481 143.247C93.6945 141.313 96.5824 140.96 99.5675 141.304C102.517 141.64 105.308 142.55 107.587 144.528C108.664 145.464 109.512 146.674 110.581 147.902M44.4759 128.94C44.4671 128.808 44.4671 128.675 44.4582 128.543C44.6967 128.481 44.9351 128.401 45.1824 128.375C51.7266 127.562 58.2091 128.287 64.665 129.311C68.0916 129.85 71.4918 130.574 74.8655 131.36C77.7357 132.031 80.5707 132.852 83.3968 133.709C85.0395 134.204 85.013 134.301 85.5252 132.693C85.5341 132.667 85.5429 132.632 85.5517 132.605C87.3269 126.397 88.8194 120.126 89.7291 113.723C90.7712 106.384 91.2923 99.0539 90.0382 91.6971C89.367 87.7582 88.1659 84.0136 85.9756 80.6399C83.1319 76.2595 79.1488 73.7689 73.8498 73.9456C69.6813 74.0869 65.6629 75.0849 61.8918 76.9483C56.2661 79.7303 51.8679 83.9076 48.194 88.9063C44.4406 94.0198 41.5526 99.6103 39.4154 105.563C38.126 109.166 36.863 112.796 35.8739 116.487C34.8936 120.153 34.1076 123.897 33.5247 127.642C32.9948 130.998 32.8535 134.424 32.5532 137.816C32.5355 138.037 32.615 138.266 32.6592 138.558C32.9683 138.452 33.1891 138.372 33.4187 138.302C36.1918 137.41 38.9385 136.403 41.7469 135.652C47.6906 134.062 53.7932 133.497 59.9135 133.188C66.1928 132.87 72.4721 132.861 78.7337 133.479C79.0517 133.515 79.3784 133.444 79.7052 133.427C73.9558 131.581 68.1181 130.388 62.2186 129.532C56.3367 128.684 50.4196 128.454 44.4759 128.94ZM117.575 172.921C117.646 172.833 117.716 172.745 117.796 172.648C118.07 172.833 118.379 172.983 118.608 173.204C121.134 175.624 123.545 178.176 126.212 180.437C128.164 182.098 130.434 183.405 132.589 184.827C132.898 185.03 133.375 184.959 133.781 185.012C133.781 184.606 133.887 184.155 133.755 183.793C132.624 180.817 131.088 178.035 129.056 175.597C127.617 173.875 125.859 172.427 124.252 170.855C124.022 170.634 123.837 170.369 123.634 170.131C123.704 170.051 123.784 169.972 123.854 169.892C124.111 170.06 124.402 170.193 124.623 170.404C125.903 171.57 127.202 172.727 128.438 173.946C129.321 174.82 129.992 175.942 130.955 176.71C133.737 178.936 136.598 181.055 139.469 183.166C140.193 183.696 141.05 184.085 141.897 184.394C142.577 184.65 142.842 184.332 142.569 183.652C142.242 182.839 141.889 182.018 141.447 181.259C138.462 176.145 134.912 171.491 130.275 167.737C130.001 167.517 129.78 167.216 129.533 166.951C129.595 166.872 129.657 166.801 129.727 166.722C129.992 166.863 130.302 166.96 130.513 167.163C132.536 169.097 134.541 171.049 136.545 173.01C136.934 173.39 137.217 173.919 137.667 174.193C139.937 175.606 142.233 176.984 144.556 178.3C144.971 178.538 145.58 178.45 146.092 178.512C145.986 178 146.013 177.399 145.739 177.002C144.097 174.67 142.542 172.25 140.661 170.113C137.04 165.989 132.713 162.668 128.111 159.701C122.954 156.38 117.522 153.58 111.843 151.275C111.402 151.099 110.978 150.842 110.854 151.628C110.607 153.271 109.644 154.463 108.32 155.382C106.942 156.336 105.414 156.839 103.745 157.042C98.6137 157.66 94.0566 156.548 90.4268 152.688C88.5456 150.692 87.636 147.451 89.4641 144.996C89.9675 144.325 89.3493 144.245 88.8989 144.157C84.1652 143.247 79.4049 142.611 74.5652 142.603C69.8226 142.585 65.1154 142.938 60.5053 144.033C57.3171 144.793 54.1465 145.685 51.0378 146.727C46.2334 148.334 41.6498 150.436 37.4989 153.395C36.9425 153.792 36.8277 154.198 37.0573 154.79C37.7639 156.565 38.3556 158.402 39.1858 160.124C42.268 166.527 47.1077 170.396 54.4909 170.59C61.1588 170.767 67.8267 171.023 74.4945 171.243C78.3893 171.376 82.2929 171.508 86.1876 171.667C87.4858 171.72 87.5123 171.765 87.6801 170.51C88.316 165.547 89.4906 160.707 91.045 155.947C91.3188 155.099 91.5749 155.099 92.2196 155.541C94.348 156.98 96.6884 157.864 99.2672 158.084C100.495 158.19 101.722 158.261 103.012 158.358C102.906 158.72 102.844 159.012 102.738 159.294C101.122 163.489 100.018 167.808 99.3909 172.25C99.2849 172.992 99.4262 173.319 100.239 173.496C104.107 174.352 107.896 175.527 111.411 177.381C115.606 179.598 119.721 181.974 123.881 184.252C124.526 184.606 125.312 185.189 125.965 184.526C126.548 183.926 125.965 183.21 125.638 182.619C123.713 179.183 121.143 176.269 118.229 173.646C117.973 173.425 117.787 173.16 117.575 172.921ZM108.532 60.3272C108.558 60.4685 108.576 60.601 108.602 60.7423C107.984 60.8483 107.357 61.0602 106.739 61.0514C105.988 61.0426 105.67 61.3782 105.423 62.0229C104.063 65.5732 102.667 69.097 101.325 72.6473C101.184 73.0271 101.122 73.5658 101.272 73.9103C102.385 76.4096 103.418 78.9531 104.752 81.3288C106.403 84.2697 108.487 86.9016 111.455 88.6767C113.574 89.9485 115.827 90.3106 118.211 89.5864C120.746 88.818 121.602 86.6896 122.194 84.4287C122.883 81.8145 122.627 79.1562 122.3 76.5244C122.256 76.1888 121.903 75.7914 121.585 75.6148C119.103 74.2547 117.204 72.4089 116.515 69.5828C116.242 68.4523 116.074 67.2777 116.789 66.1473C116.983 66.2532 117.098 66.2974 117.178 66.3681C120.304 69.097 123.934 70.828 128.005 71.5169C131.061 72.038 134.117 71.8613 136.846 70.1745C139.416 68.576 141.641 65.9 140.82 62.2437C140.484 60.7511 139.849 59.3028 139.186 57.9074C138.1 55.6288 136.749 53.4562 136.316 50.9304C135.98 48.9874 135.83 47.0092 135.609 45.0485C135.336 42.6198 135.336 42.6198 132.942 42.0811C130.858 41.613 130.743 41.3393 131.935 39.6701C131.944 39.6524 131.927 39.6171 131.891 39.4581C129.992 39.3698 128.076 39.361 126.062 39.988C126.442 40.2176 126.681 40.3501 126.91 40.4914C128.032 41.1891 128.005 42.0546 126.848 42.6905C126.23 43.0261 125.603 43.3264 125.003 43.6796C123.819 44.3685 122.689 45.1369 121.479 45.7727C120.525 46.2761 119.916 45.8257 120.013 44.7659C120.066 44.1477 120.26 43.5472 120.384 42.9289C120.004 42.9996 119.757 43.1586 119.58 43.3794C118.714 44.4038 117.769 45.3753 117.036 46.4793C115.994 48.0513 115.155 49.747 114.157 51.3455C113.221 52.8468 112.232 52.997 110.943 51.7959C109.892 50.8244 109.008 49.6851 107.975 48.696C107.03 47.7952 106.085 46.8502 104.972 46.1966C102.756 44.8719 100.442 44.7571 98.3222 46.4616C96.3351 48.0689 95.5491 50.1532 96.1232 52.7144C96.5206 54.4895 97.5186 55.8849 98.8256 57.0595C101.387 59.3469 104.239 60.8924 107.852 60.2919C108.072 60.2654 108.311 60.3184 108.532 60.3272ZM29.9832 158.623C30.8929 157.749 31.5022 157.078 32.1999 156.512C37.3134 152.361 42.8862 148.997 49.086 146.718C54.279 144.81 59.5603 143.283 65.08 142.585C70.0258 141.958 74.9626 141.693 79.926 142.249C81.8248 142.461 83.7236 142.726 85.6224 142.991C86.2936 143.088 86.7087 143 86.8411 142.214C87.0354 141.048 87.3887 139.909 87.583 138.743C87.9628 136.491 87.1414 135.228 84.8717 134.954C80.765 134.451 76.6495 133.948 72.5163 133.727C64.5855 133.303 56.6812 133.771 48.821 134.91C44.5024 135.537 40.2632 136.438 36.1388 137.886C33.6042 138.778 31.2726 139.962 29.418 141.958C28.0579 143.415 27.3337 145.075 27.3249 147.142C27.3161 148.988 27.4839 150.798 27.9696 152.556C28.5348 154.525 29.259 156.451 29.9832 158.623ZM100.433 73.8131C98.3841 75.1467 96.3969 76.4184 94.4363 77.7432C94.2685 77.858 94.1979 78.3437 94.2774 78.591C95.2842 81.5761 96.2468 84.5877 97.3861 87.5286C98.861 91.3174 100.415 95.0885 102.093 98.7977C102.879 100.529 103.957 102.145 105.052 103.708C105.917 104.936 106.907 105.006 108.125 104.106C108.752 103.637 109.326 103.072 109.812 102.454C112.312 99.2482 113.875 95.5477 115.27 91.7766C115.685 90.655 115.668 90.6197 114.475 90.443C112.674 90.1781 111.128 89.3568 109.733 88.2528C106.421 85.6386 104.257 82.1678 102.455 78.4409C101.749 76.9572 101.14 75.4381 100.433 73.8131ZM101.97 154.543C103.135 154.366 104.345 154.322 105.458 153.978C106.509 153.651 107.569 153.13 108.417 152.441C110.369 150.86 110.236 148.193 108.231 145.994C104.893 142.329 97.8807 140.774 93.2882 142.691C90.7006 143.768 89.4376 145.994 90.4444 148.255C90.9743 149.447 91.937 150.577 92.9615 151.408C95.5491 153.492 98.6313 154.375 101.97 154.543ZM123.554 79.9687C123.475 80.0217 123.386 80.0747 123.307 80.1365C123.289 80.4015 123.289 80.6664 123.254 80.9314C123.015 82.4858 122.918 84.0931 122.494 85.5945C121.797 88.0408 120.357 89.8955 117.637 90.3459C116.948 90.4607 117.001 90.8758 117.187 91.3615C117.884 93.172 118.476 95.0443 119.324 96.7841C120.198 98.577 121.214 100.326 122.371 101.951C123.36 103.328 124.543 103.161 125.215 101.606C125.797 100.255 126.265 98.8066 126.513 97.3494C127.281 92.8982 127.467 88.3853 127.308 83.8723C127.299 83.5455 127.281 83.104 127.087 82.9273C125.948 81.9029 124.738 80.9491 123.554 79.9687ZM36.183 154.419C34.3019 155.567 32.6415 156.715 31.3168 158.288C30.4071 159.365 30.6191 159.93 31.9968 160.177C32.2971 160.23 32.6062 160.257 32.9065 160.239C34.4167 160.133 35.9269 160.001 37.4459 159.886C38.0906 159.842 38.0995 159.497 37.9052 159.012C37.4901 157.97 37.0838 156.927 36.6864 155.876C36.5186 155.426 36.3773 154.976 36.183 154.419Z" fill="black"/>
<path d="M142.242 106.809C142.383 107.003 142.569 107.18 142.666 107.391C144.264 110.853 145.404 114.474 146.349 118.157C147.717 123.5 148.609 128.941 149.148 134.425C149.758 140.581 150.128 146.754 149.713 152.954C149.607 154.535 149.484 156.116 149.351 157.688C149.325 157.97 149.183 158.244 148.954 158.509C150.005 140.854 148.627 123.553 141.968 106.968C142.065 106.906 142.153 106.862 142.242 106.809Z" fill="black"/>
<path d="M44.4759 128.94C50.4196 128.454 56.3367 128.684 62.2186 129.54C68.1181 130.397 73.9558 131.589 79.7052 133.435C79.3784 133.453 79.0517 133.514 78.7337 133.488C72.4633 132.87 66.184 132.87 59.9135 133.197C53.7932 133.515 47.6906 134.071 41.7469 135.661C38.9385 136.411 36.1918 137.418 33.4187 138.31C33.1979 138.381 32.9683 138.46 32.6592 138.566C32.615 138.275 32.5267 138.045 32.5532 137.824C32.8535 134.433 32.9948 131.006 33.5247 127.65C34.1076 123.897 34.8936 120.161 35.8739 116.496C36.863 112.804 38.126 109.175 39.4154 105.571C41.5526 99.6099 44.4406 94.0283 48.194 88.9148C51.8679 83.9073 56.2749 79.7388 61.8918 76.9568C65.6629 75.0934 69.6813 74.0954 73.8498 73.9541C79.1488 73.7775 83.1319 76.2768 85.9756 80.6485C88.1659 84.0221 89.367 87.7667 90.0382 91.7056C91.3011 99.0712 90.7712 106.401 89.7291 113.732C88.8194 120.135 87.3357 126.405 85.5517 132.614C85.5429 132.64 85.5341 132.675 85.5252 132.702C85.013 134.309 85.0395 134.212 83.3968 133.718C80.5795 132.861 77.7357 132.031 74.8655 131.368C71.4918 130.582 68.0916 129.858 64.665 129.319C58.209 128.295 51.7266 127.571 45.1824 128.383C44.9351 128.41 44.6967 128.498 44.4582 128.551C44.4671 128.675 44.4671 128.807 44.4759 128.94Z" fill="white"/>
<path d="M117.575 172.922C117.787 173.161 117.964 173.434 118.202 173.646C121.117 176.269 123.687 179.184 125.612 182.619C125.939 183.211 126.522 183.926 125.939 184.527C125.285 185.198 124.499 184.606 123.854 184.253C119.695 181.975 115.579 179.608 111.384 177.382C107.869 175.519 104.089 174.353 100.212 173.496C99.3997 173.32 99.2584 172.993 99.3644 172.251C99.9915 167.8 101.095 163.481 102.712 159.295C102.818 159.021 102.879 158.721 102.985 158.359C101.687 158.262 100.46 158.191 99.2408 158.085C96.6708 157.864 94.3216 156.981 92.1931 155.541C91.5484 155.1 91.2923 155.1 91.0185 155.948C89.473 160.708 88.2984 165.548 87.6537 170.511C87.4947 171.765 87.4594 171.721 86.1612 171.668C82.2664 171.509 78.3628 171.377 74.4681 171.244C67.8002 171.014 61.1324 170.758 54.4645 170.591C47.0813 170.396 42.2415 166.528 39.1593 160.125C38.3291 158.403 37.7374 156.575 37.0309 154.791C36.8013 154.208 36.9161 153.793 37.4725 153.395C41.6233 150.437 46.2069 148.326 51.0113 146.728C54.1201 145.694 57.2906 144.802 60.4788 144.034C65.0889 142.93 69.7962 142.586 74.5388 142.603C79.3785 142.621 84.1387 143.248 88.8725 144.158C89.3229 144.246 89.9411 144.325 89.4377 144.997C87.6095 147.443 88.5192 150.693 90.4003 152.689C94.0301 156.548 98.5872 157.67 103.718 157.043C105.388 156.84 106.924 156.336 108.293 155.383C109.618 154.464 110.572 153.272 110.828 151.629C110.951 150.843 111.375 151.099 111.817 151.276C117.496 153.59 122.918 156.389 128.085 159.701C132.695 162.66 137.022 165.989 140.635 170.114C142.507 172.251 144.07 174.671 145.713 177.002C145.987 177.391 145.96 178 146.066 178.513C145.545 178.451 144.944 178.539 144.529 178.301C142.207 176.985 139.91 175.607 137.641 174.194C137.19 173.92 136.908 173.39 136.519 173.01C134.514 171.05 132.509 169.098 130.487 167.164C130.275 166.961 129.966 166.872 129.701 166.722C129.639 166.802 129.577 166.872 129.507 166.952C129.754 167.217 129.966 167.517 130.249 167.738C134.885 171.491 138.435 176.146 141.421 181.259C141.862 182.019 142.215 182.831 142.542 183.653C142.816 184.333 142.551 184.65 141.871 184.394C141.023 184.085 140.166 183.697 139.442 183.167C136.572 181.065 133.711 178.936 130.929 176.711C129.966 175.943 129.295 174.83 128.412 173.947C127.184 172.728 125.886 171.571 124.596 170.405C124.376 170.202 124.084 170.061 123.828 169.893C123.757 169.972 123.678 170.052 123.607 170.131C123.81 170.37 124.005 170.635 124.225 170.856C125.833 172.428 127.599 173.876 129.03 175.598C131.061 178.036 132.598 180.818 133.728 183.794C133.861 184.156 133.755 184.606 133.755 185.013C133.357 184.96 132.872 185.03 132.562 184.827C130.408 183.405 128.138 182.107 126.186 180.438C123.528 178.177 121.117 175.625 118.582 173.205C118.344 172.984 118.043 172.834 117.77 172.648C117.725 172.737 117.655 172.834 117.575 172.922Z" fill="white"/>
<path d="M108.532 60.3274C108.302 60.3185 108.072 60.2656 107.86 60.3009C104.248 60.9014 101.396 59.3559 98.8345 57.0685C97.5185 55.8939 96.5294 54.4985 96.132 52.7234C95.5579 50.1622 96.3439 48.0779 98.331 46.4706C100.442 44.7661 102.756 44.8809 104.981 46.2056C106.085 46.868 107.039 47.813 107.984 48.705C109.017 49.6941 109.909 50.8334 110.951 51.8049C112.241 53.006 113.23 52.847 114.166 51.3545C115.164 49.7559 116.003 48.0514 117.045 46.4882C117.778 45.3755 118.723 44.404 119.589 43.3883C119.774 43.1764 120.022 43.0174 120.392 42.9379C120.269 43.5473 120.074 44.1567 120.021 44.7749C119.924 45.8347 120.534 46.2851 121.488 45.7817C122.697 45.1547 123.837 44.3775 125.011 43.6886C125.612 43.3354 126.248 43.0351 126.857 42.6995C128.023 42.0636 128.041 41.1981 126.919 40.5004C126.689 40.3591 126.451 40.2266 126.071 39.997C128.085 39.37 130.001 39.3788 131.9 39.4671C131.935 39.6261 131.953 39.6614 131.944 39.6791C130.752 41.3482 130.867 41.6309 132.951 42.0901C135.353 42.6288 135.344 42.6288 135.618 45.0575C135.839 47.0181 135.998 48.9964 136.325 50.9394C136.757 53.4652 138.117 55.6378 139.195 57.9164C139.857 59.3117 140.493 60.7601 140.829 62.2527C141.641 65.909 139.425 68.5849 136.855 70.1835C134.126 71.8791 131.07 72.0558 128.014 71.5259C123.952 70.8282 120.313 69.106 117.187 66.377C117.098 66.3064 116.983 66.2622 116.798 66.1562C116.083 67.2867 116.25 68.4613 116.524 69.5918C117.213 72.4267 119.121 74.2637 121.594 75.6237C121.911 75.8004 122.265 76.1978 122.309 76.5334C122.636 79.1652 122.892 81.8235 122.203 84.4377C121.611 86.6986 120.755 88.8182 118.22 89.5954C115.835 90.3195 113.583 89.9575 111.464 88.6857C108.496 86.9105 106.412 84.2787 104.76 81.3378C103.427 78.9621 102.385 76.4186 101.281 73.9192C101.122 73.566 101.192 73.0361 101.334 72.6563C102.685 69.106 104.08 65.5734 105.432 62.0319C105.679 61.3872 106.006 61.0516 106.748 61.0604C107.366 61.0692 107.993 60.8661 108.611 60.7513C108.576 60.6012 108.558 60.4687 108.532 60.3274ZM121.585 48.334C121.549 48.4665 121.514 48.599 121.479 48.7315C122.176 48.9964 122.865 49.3673 123.589 49.5175C125.082 49.8266 126.557 49.7029 127.899 48.9169C128.526 48.546 128.562 47.7247 128.129 46.8945C127.749 46.1703 127.272 46.4441 126.751 46.6737C126.31 46.8768 125.85 47.0446 125.391 47.1859C124.128 47.5834 122.856 47.9543 121.585 48.334ZM132.156 48.5637C132.651 48.5107 132.88 48.4842 133.11 48.4577C134.011 48.3605 134.726 47.9366 135.212 47.1683C135.6 46.5677 135.442 46.3028 134.726 46.2674C133.94 46.2233 133.154 46.1615 132.368 46.0996C130.999 46.0025 130.549 46.6119 131.211 47.8218C131.67 48.6608 132.262 49.4468 132.863 50.2063C133.719 51.2838 133.728 51.5488 132.757 52.4849C132.589 52.6439 132.448 52.8382 132.147 53.1826C133.896 52.688 134.399 51.381 133.499 50.2063C133.119 49.6941 132.695 49.2084 132.156 48.5637ZM100.38 49.3938C100.345 49.5175 100.3 49.6411 100.265 49.7559C100.512 49.8443 100.751 50.0032 100.998 50.0209C103.948 50.224 105.785 51.8579 106.88 54.4897C107.03 54.8429 107.251 55.1697 107.436 55.5053C107.551 55.4347 107.675 55.3728 107.79 55.3022C107.428 53.5624 106.544 52.0875 105.131 50.957C103.736 49.8443 102.155 49.2437 100.38 49.3938ZM133.189 57.4571C130.416 58.72 128.641 57.6602 127.449 55.0372C127.219 57.0685 128.394 58.5787 130.222 58.826C131.812 59.038 133.039 58.5257 133.189 57.4571Z" fill="white"/>
<path d="M29.9833 158.624C29.2591 156.451 28.5349 154.526 27.9873 152.557C27.4928 150.799 27.3338 148.998 27.3426 147.143C27.3515 145.076 28.0757 143.416 29.4357 141.959C31.2904 139.963 33.6219 138.779 36.1566 137.887C40.2809 136.439 44.5201 135.547 48.8388 134.911C56.6989 133.763 64.6032 133.304 72.534 133.728C76.6584 133.948 80.7827 134.452 84.8894 134.955C87.1503 135.229 87.9805 136.492 87.6007 138.744C87.4064 139.91 87.0532 141.049 86.8589 142.215C86.7264 143.001 86.3113 143.089 85.6401 142.992C83.7413 142.718 81.8425 142.462 79.9437 142.25C74.9804 141.694 70.0435 141.959 65.0978 142.586C59.578 143.283 54.2967 144.811 49.1037 146.719C42.9039 148.998 37.3312 152.354 32.2177 156.513C31.5023 157.078 30.8929 157.75 29.9833 158.624Z" fill="white"/>
<path d="M100.433 73.8145C101.14 75.4395 101.749 76.9585 102.464 78.4246C104.266 82.1515 106.439 85.6223 109.742 88.2365C111.146 89.3404 112.683 90.1618 114.484 90.4267C115.677 90.6034 115.694 90.6387 115.279 91.7603C113.884 95.5402 112.32 99.2318 109.821 102.438C109.344 103.056 108.761 103.621 108.134 104.089C106.916 104.999 105.926 104.928 105.061 103.692C103.966 102.129 102.888 100.512 102.102 98.7814C100.424 95.0721 98.8699 91.3099 97.3951 87.5123C96.247 84.5714 95.2931 81.5598 94.2863 78.5747C94.2069 78.3274 94.2687 77.8505 94.4453 77.7269C96.3971 76.4286 98.3842 75.148 100.433 73.8145Z" fill="white"/>
<path d="M101.97 154.543C98.6313 154.366 95.5579 153.492 92.9614 151.408C91.9281 150.578 90.9743 149.447 90.4444 148.255C89.4376 146.003 90.7005 143.769 93.2882 142.691C97.8895 140.775 104.902 142.329 108.231 145.994C110.236 148.193 110.369 150.86 108.417 152.441C107.569 153.13 106.509 153.642 105.458 153.978C104.345 154.331 103.135 154.366 101.97 154.543ZM100.663 147.001C100.433 146.807 100.177 146.453 99.8501 146.347C98.1898 145.773 96.5029 145.243 94.8161 144.74C94.56 144.669 94.242 144.828 93.9506 144.881C94.1449 145.129 94.2862 145.508 94.5335 145.597C95.9554 146.118 97.4037 146.595 98.8433 147.045C99.3644 147.204 99.5322 147.451 99.3467 147.981C99.0641 148.785 98.808 149.597 98.6048 150.419C98.5607 150.613 98.7726 150.86 98.861 151.09C99.0553 150.984 99.3732 150.922 99.4262 150.763C99.8501 149.589 100.212 148.396 100.663 147.001Z" fill="white"/>
<path d="M123.554 79.9688C124.738 80.9491 125.939 81.9029 127.087 82.9185C127.29 83.0951 127.299 83.5367 127.308 83.8635C127.467 88.3764 127.281 92.8806 126.513 97.3405C126.265 98.7889 125.797 100.237 125.214 101.597C124.543 103.152 123.36 103.32 122.371 101.942C121.205 100.326 120.198 98.5681 119.324 96.7753C118.476 95.0355 117.884 93.1632 117.187 91.3527C117.001 90.8758 116.948 90.4519 117.637 90.3371C120.357 89.8867 121.797 88.0408 122.494 85.5857C122.918 84.0843 123.015 82.4858 123.254 80.9226C123.298 80.6576 123.289 80.3927 123.307 80.1277C123.395 80.0836 123.475 80.0217 123.554 79.9688Z" fill="white"/>
<path d="M36.1828 154.42C36.3771 154.976 36.5184 155.427 36.6773 155.859C37.0748 156.91 37.4722 157.953 37.8961 158.995C38.0904 159.489 38.0816 159.825 37.4369 159.869C35.9267 159.984 34.4165 160.116 32.8974 160.222C32.5971 160.24 32.288 160.213 31.9878 160.16C30.61 159.913 30.3981 159.348 31.3077 158.271C32.6501 156.716 34.3105 155.568 36.1828 154.42Z" fill="white"/>
<path d="M121.585 48.3349C122.856 47.9552 124.128 47.5842 125.391 47.1956C125.85 47.0543 126.31 46.8777 126.751 46.6834C127.272 46.4449 127.749 46.18 128.129 46.9042C128.571 47.7344 128.526 48.5645 127.899 48.9266C126.557 49.7126 125.073 49.8363 123.59 49.5272C122.865 49.377 122.185 49.0061 121.479 48.7412C121.514 48.5999 121.549 48.4674 121.585 48.3349Z" fill="black"/>
<path d="M132.156 48.5649C132.686 49.2096 133.11 49.6953 133.499 50.2076C134.391 51.3822 133.896 52.6893 132.147 53.1838C132.448 52.8394 132.589 52.6451 132.757 52.4861C133.728 51.5588 133.719 51.285 132.863 50.2076C132.262 49.4481 131.67 48.6709 131.211 47.823C130.549 46.6131 130.999 46.0037 132.368 46.1009C133.154 46.1627 133.94 46.2245 134.726 46.2687C135.433 46.304 135.592 46.5689 135.212 47.1695C134.726 47.9378 134.02 48.3618 133.11 48.4589C132.88 48.4854 132.651 48.5031 132.156 48.5649Z" fill="black"/>
<path d="M100.38 49.3939C102.155 49.2437 103.736 49.8443 105.131 50.9571C106.544 52.0875 107.428 53.5624 107.79 55.3022C107.675 55.3729 107.551 55.4347 107.436 55.5053C107.251 55.1697 107.03 54.843 106.88 54.4897C105.785 51.8579 103.948 50.224 100.998 50.0209C100.751 50.0032 100.504 49.8531 100.265 49.756C100.3 49.6411 100.345 49.5175 100.38 49.3939Z" fill="black"/>
<path d="M133.19 57.457C133.048 58.5256 131.812 59.0378 130.213 58.8259C128.394 58.5786 127.219 57.0684 127.44 55.0371C128.641 57.6601 130.416 58.7199 133.19 57.457Z" fill="black"/>
<path d="M100.663 147.001C100.212 148.397 99.8502 149.589 99.4351 150.764C99.3821 150.923 99.0641 150.984 98.8698 151.09C98.7815 150.87 98.5696 150.613 98.6137 150.419C98.8169 149.598 99.073 148.785 99.3556 147.982C99.5411 147.452 99.3733 147.204 98.8522 147.046C97.4038 146.595 95.9643 146.118 94.5424 145.597C94.2951 145.509 94.1538 145.129 93.9595 144.882C94.2509 144.829 94.5689 144.67 94.825 144.74C96.5118 145.244 98.1898 145.774 99.859 146.348C100.177 146.454 100.424 146.807 100.663 147.001Z" fill="black"/>
<path d="M114.316 104.203C114.316 104.203 115.191 141.305 109.803 150.322C109.803 150.322 122.777 154.597 127.44 158.624H131.476C131.476 158.624 134.797 136.474 119.924 103.329C119.933 103.329 118.114 105.148 114.316 104.203Z" fill="black"/>
<path d="M182.947 110.183L160.073 162.413H217.231L240.37 111.287C240.953 110.007 240.026 108.558 238.622 108.541L186.25 108.037C184.819 108.028 183.521 108.867 182.947 110.183Z" fill="#C4C4C4"/>
<path d="M127.449 158.624L160.073 158.527L158.412 162.404H133.074L127.449 158.624Z" fill="#C4C4C4"/>
<path d="M153.308 161.194H149.139C148.733 161.194 148.415 160.867 148.415 160.469C148.415 160.063 148.742 159.745 149.139 159.745H153.308C153.714 159.745 154.032 160.072 154.032 160.469C154.041 160.867 153.714 161.194 153.308 161.194Z" fill="white"/>
<path d="M156.098 161.327C156.571 161.327 156.955 160.943 156.955 160.47C156.955 159.997 156.571 159.613 156.098 159.613C155.625 159.613 155.242 159.997 155.242 160.47C155.242 160.943 155.625 161.327 156.098 161.327Z" fill="white"/>
<path d="M219.854 143.601C218.742 142.479 218.733 141.843 219.916 140.775C221.85 139.026 224.226 138.055 226.628 137.163C227.741 136.748 228.854 136.394 230.09 136.739C232.51 137.419 233.358 140.298 231.583 142.091C231.106 142.568 230.982 142.894 231.265 143.548C231.777 144.731 231.327 146.109 230.179 147.036C229.569 147.531 228.863 147.902 228.2 148.326C229.048 150.843 228.377 152.256 225.878 153.28C225.683 153.36 225.454 153.616 225.427 153.819C225.197 155.453 224.27 156.592 222.672 156.893C220.049 157.396 217.523 157.043 215.129 155.815C215.05 155.771 214.97 155.727 214.891 155.674C214.264 155.197 213.487 154.764 213.708 153.801C213.911 152.901 214.776 152.821 215.483 152.574C215.73 152.494 215.995 152.477 216.419 152.406C216.127 152.132 215.942 151.947 215.756 151.779C214.838 150.967 214.873 149.995 215.968 149.412C216.763 148.997 217.682 148.812 218.538 148.529C218.697 148.476 218.865 148.441 219.183 148.361C218.397 148.017 217.744 147.796 217.152 147.46C216.048 146.833 215.942 145.994 216.966 145.244C217.841 144.617 218.856 144.166 219.854 143.601ZM224.509 143.301C226.284 143.071 227.803 142.939 229.295 142.665C231.035 142.347 232.219 140.757 231.848 139.353C231.397 137.64 229.922 136.862 228.068 137.401C227.193 137.657 226.293 137.887 225.498 138.302C223.731 139.238 222.018 140.254 220.322 141.305C220.022 141.49 219.695 142.117 219.801 142.347C219.943 142.674 220.473 142.965 220.861 143.018C222.151 143.186 223.458 143.23 224.509 143.301ZM222.954 148.176C222.972 148.096 222.981 148.008 222.998 147.928C223.908 147.928 224.827 147.964 225.736 147.92C227.079 147.849 228.465 147.717 229.49 146.736C230.055 146.197 230.532 145.464 230.806 144.731C231.115 143.884 230.435 143.142 229.702 143.221C227.494 143.46 225.295 143.742 223.078 143.822C221.126 143.892 219.395 144.528 217.744 145.473C217.434 145.65 217.011 146.1 217.064 146.312C217.143 146.639 217.567 147.019 217.911 147.107C219.572 147.505 221.267 147.822 222.954 148.176ZM223.043 153.015C223.06 152.936 223.069 152.865 223.087 152.786C223.634 152.786 224.182 152.821 224.729 152.777C225.975 152.671 227.087 152.229 227.653 151.055C227.9 150.543 228.015 149.739 227.767 149.289C227.556 148.9 226.778 148.741 226.213 148.635C225.754 148.547 225.25 148.679 224.765 148.706C222.195 148.873 219.581 148.759 217.099 149.615C216.622 149.783 216.251 150.278 215.836 150.622C216.198 150.993 216.56 151.373 216.931 151.726C217.011 151.806 217.152 151.823 217.267 151.85C219.192 152.256 221.117 152.636 223.043 153.015ZM217.638 153.015C217.037 153.086 216.295 153.113 215.589 153.289C215.165 153.395 214.794 153.749 214.405 153.987C214.67 154.358 214.864 154.861 215.227 155.073C217.161 156.239 219.324 156.619 221.541 156.477C222.663 156.407 223.758 156.001 224.447 154.985C224.959 154.225 224.765 153.581 223.952 153.51C221.894 153.316 219.828 153.183 217.638 153.015Z" fill="black"/>
<path d="M224.508 143.301C223.458 143.23 222.15 143.186 220.852 143.027C220.455 142.974 219.934 142.683 219.792 142.356C219.686 142.117 220.013 141.499 220.313 141.314C222.009 140.263 223.722 139.238 225.489 138.311C226.284 137.887 227.193 137.666 228.059 137.41C229.913 136.871 231.388 137.648 231.839 139.362C232.21 140.757 231.035 142.356 229.286 142.674C227.803 142.939 226.284 143.071 224.508 143.301Z" fill="white"/>
<path d="M222.954 148.176C221.267 147.823 219.571 147.514 217.902 147.099C217.558 147.019 217.134 146.631 217.054 146.304C217.001 146.083 217.425 145.633 217.734 145.465C219.386 144.529 221.117 143.893 223.069 143.813C225.285 143.725 227.484 143.443 229.692 143.213C230.425 143.133 231.105 143.875 230.796 144.723C230.531 145.456 230.046 146.18 229.48 146.728C228.456 147.708 227.078 147.841 225.727 147.911C224.817 147.955 223.899 147.92 222.989 147.92C222.98 148.008 222.972 148.088 222.954 148.176Z" fill="white"/>
<path d="M223.043 153.015C221.117 152.635 219.192 152.247 217.267 151.867C217.152 151.841 217.011 151.823 216.931 151.743C216.551 151.381 216.198 151.01 215.836 150.639C216.26 150.295 216.622 149.8 217.099 149.633C219.581 148.776 222.195 148.891 224.765 148.723C225.25 148.688 225.754 148.564 226.213 148.652C226.769 148.758 227.555 148.917 227.767 149.306C228.006 149.747 227.891 150.56 227.653 151.072C227.087 152.238 225.975 152.688 224.729 152.794C224.182 152.838 223.634 152.803 223.087 152.803C223.078 152.865 223.06 152.944 223.043 153.015Z" fill="white"/>
<path d="M217.637 153.017C219.828 153.184 221.894 153.317 223.952 153.502C224.765 153.582 224.959 154.227 224.447 154.977C223.749 156.002 222.663 156.399 221.541 156.47C219.324 156.611 217.16 156.231 215.226 155.066C214.864 154.854 214.679 154.35 214.405 153.979C214.794 153.741 215.165 153.388 215.588 153.282C216.295 153.114 217.037 153.096 217.637 153.017Z" fill="white"/>
</svg>
