<svg width="24" height="24" viewBox="0 0 24 24" fill="none" xmlns="http://www.w3.org/2000/svg">
<circle cx="12" cy="12" r="12" fill="url(#paint0_linear_191_685)"/>
<path d="M18.4844 10.0805L13.0055 12.268L16.8703 17.2375C16.9221 17.3022 16.9605 17.3765 16.9833 17.4561C17.006 17.5357 17.0128 17.6191 17.0031 17.7013C16.9934 17.7835 16.9674 17.863 16.9267 17.9352C16.886 18.0073 16.8314 18.0706 16.766 18.1214C16.7006 18.1723 16.6258 18.2096 16.5459 18.2313C16.4659 18.2529 16.3825 18.2585 16.3004 18.2476C16.2183 18.2368 16.1392 18.2097 16.0676 18.168C15.9961 18.1263 15.9335 18.0708 15.8836 18.0047L12 13.0156L8.11877 18.0086C8.01615 18.1368 7.86717 18.2195 7.70407 18.2387C7.54097 18.258 7.37684 18.2123 7.24718 18.1115C7.11752 18.0107 7.03276 17.8629 7.01121 17.7C6.98967 17.5372 7.03308 17.3725 7.13205 17.2414L10.9969 12.2719L5.51565 10.0805C5.3617 10.0183 5.23875 9.89754 5.17384 9.74473C5.10894 9.59191 5.10739 9.41957 5.16955 9.26562C5.23171 9.11168 5.35248 8.98872 5.5053 8.92382C5.65811 8.85891 5.83045 8.85737 5.9844 8.91953L11.375 11.0766V5.125C11.375 4.95924 11.4409 4.80027 11.5581 4.68306C11.6753 4.56585 11.8343 4.5 12 4.5C12.1658 4.5 12.3248 4.56585 12.442 4.68306C12.5592 4.80027 12.625 4.95924 12.625 5.125V11.0766L18.0156 8.91953C18.0919 8.88875 18.1734 8.87329 18.2556 8.87403C18.3378 8.87476 18.4191 8.89168 18.4947 8.92382C18.5704 8.95596 18.639 9.00268 18.6966 9.06133C18.7542 9.11998 18.7997 9.1894 18.8305 9.26562C18.8613 9.34185 18.8767 9.4234 18.876 9.5056C18.8753 9.58781 18.8583 9.66906 18.8262 9.74473C18.7941 9.82039 18.7473 9.88899 18.6887 9.94659C18.63 10.0042 18.5606 10.0497 18.4844 10.0805Z" fill="#FEFFFE"/>
<defs>
<linearGradient id="paint0_linear_191_685" x1="12" y1="0" x2="12" y2="24" gradientUnits="userSpaceOnUse">
<stop stop-color="#5E2BFF"/>
<stop offset="0.730769" stop-color="#8964FF"/>
</linearGradient>
</defs>
</svg>
