<svg width="500" height="132" viewBox="0 0 500 132" fill="none" xmlns="http://www.w3.org/2000/svg">
<g clip-path="url(#clip0_441_1650)">
<path d="M152.177 113V52.1H174.101C178.973 52.1 183.004 52.941 186.194 54.623C189.384 56.247 191.762 58.451 193.328 61.235C194.894 64.019 195.677 67.209 195.677 70.805C195.677 74.169 194.923 77.272 193.415 80.114C191.907 82.898 189.558 85.16 186.368 86.9C183.178 88.582 179.089 89.423 174.101 89.423H162.617V113H152.177ZM162.617 80.897H173.492C177.61 80.897 180.568 79.998 182.366 78.2C184.164 76.344 185.063 73.879 185.063 70.805C185.063 67.615 184.164 65.121 182.366 63.323C180.568 61.525 177.61 60.626 173.492 60.626H162.617V80.897ZM204.42 113V69.152H213.729L214.686 77.33C215.73 75.416 217.035 73.792 218.601 72.458C220.167 71.066 221.994 69.993 224.082 69.239C226.228 68.485 228.577 68.108 231.129 68.108V79.157H227.475C225.735 79.157 224.082 79.389 222.516 79.853C220.95 80.259 219.587 80.955 218.427 81.941C217.325 82.869 216.455 84.174 215.817 85.856C215.179 87.48 214.86 89.539 214.86 92.033V113H204.42ZM258.596 114.044C254.246 114.044 250.418 113.116 247.112 111.26C243.806 109.346 241.225 106.678 239.369 103.256C237.513 99.834 236.585 95.89 236.585 91.424C236.585 86.784 237.484 82.724 239.282 79.244C241.138 75.764 243.719 73.038 247.025 71.066C250.389 69.094 254.275 68.108 258.683 68.108C262.975 68.108 266.716 69.065 269.906 70.979C273.096 72.893 275.561 75.474 277.301 78.722C279.041 81.912 279.911 85.508 279.911 89.51C279.911 90.09 279.911 90.728 279.911 91.424C279.911 92.12 279.853 92.845 279.737 93.599H244.067V86.9H269.384C269.268 83.71 268.195 81.216 266.165 79.418C264.135 77.562 261.612 76.634 258.596 76.634C256.45 76.634 254.478 77.127 252.68 78.113C250.882 79.099 249.461 80.578 248.417 82.55C247.373 84.464 246.851 86.9 246.851 89.858V92.381C246.851 95.107 247.344 97.456 248.33 99.428C249.374 101.4 250.766 102.908 252.506 103.952C254.304 104.938 256.305 105.431 258.509 105.431C260.945 105.431 262.946 104.909 264.512 103.865C266.136 102.821 267.325 101.429 268.079 99.689H278.693C277.881 102.415 276.547 104.88 274.691 107.084C272.835 109.23 270.544 110.941 267.818 112.217C265.092 113.435 262.018 114.044 258.596 114.044ZM289.551 132.14V69.152H298.86L299.991 75.503C300.919 74.227 302.021 73.038 303.297 71.936C304.631 70.776 306.226 69.848 308.082 69.152C309.996 68.456 312.171 68.108 314.607 68.108C318.725 68.108 322.35 69.123 325.482 71.153C328.672 73.183 331.166 75.938 332.964 79.418C334.762 82.84 335.661 86.755 335.661 91.163C335.661 95.571 334.733 99.515 332.877 102.995C331.079 106.417 328.585 109.114 325.395 111.086C322.263 113.058 318.667 114.044 314.607 114.044C311.301 114.044 308.401 113.435 305.907 112.217C303.471 110.941 301.499 109.143 299.991 106.823V132.14H289.551ZM312.432 104.996C314.868 104.996 317.043 104.416 318.957 103.256C320.871 102.096 322.35 100.472 323.394 98.384C324.496 96.296 325.047 93.889 325.047 91.163C325.047 88.379 324.496 85.943 323.394 83.855C322.35 81.767 320.871 80.143 318.957 78.983C317.043 77.823 314.868 77.243 312.432 77.243C309.938 77.243 307.734 77.823 305.82 78.983C303.964 80.143 302.485 81.767 301.383 83.855C300.339 85.943 299.817 88.35 299.817 91.076C299.817 93.86 300.339 96.296 301.383 98.384C302.485 100.414 303.964 102.038 305.82 103.256C307.734 104.416 309.938 104.996 312.432 104.996ZM346.491 113V52.1H353.799V107.171H382.161V113H346.491ZM392.631 113V69.152H399.939V113H392.631ZM396.285 59.843C394.835 59.843 393.617 59.379 392.631 58.451C391.703 57.465 391.239 56.247 391.239 54.797C391.239 53.347 391.703 52.187 392.631 51.317C393.617 50.389 394.835 49.925 396.285 49.925C397.677 49.925 398.866 50.389 399.852 51.317C400.838 52.187 401.331 53.347 401.331 54.797C401.331 56.247 400.838 57.465 399.852 58.451C398.866 59.379 397.677 59.843 396.285 59.843ZM412.835 113V69.152H419.447L419.795 76.808C421.187 74.082 423.159 71.965 425.711 70.457C428.321 68.891 431.279 68.108 434.585 68.108C438.007 68.108 440.965 68.804 443.459 70.196C445.953 71.53 447.896 73.589 449.288 76.373C450.68 79.099 451.376 82.579 451.376 86.813V113H444.068V87.596C444.068 83.188 443.082 79.882 441.11 77.678C439.196 75.474 436.47 74.372 432.932 74.372C430.496 74.372 428.321 74.981 426.407 76.199C424.493 77.359 422.956 79.07 421.796 81.332C420.694 83.536 420.143 86.291 420.143 89.597V113H412.835ZM489.762 113L468.882 88.988L487.935 69.152H496.896L475.059 91.598L475.146 86.378L499.071 113H489.762ZM462.792 113V50.36H470.1V113H462.792Z" fill="#131515"/>
<g clip-path="url(#clip1_441_1650)">
<path d="M100.136 69.002L72.3828 80.8555L79.6729 86.8623C56.1197 110.159 38.0074 121.405 0.973633 131.742C44.7031 126.173 65.3436 116.432 90.5371 93.4424L98.542 98.4482L100.771 69.8057L150.039 132H0L75.3486 37.7119L100.136 69.002Z" fill="#5E2BFF"/>
<line x1="75.2466" y1="3" x2="75.2466" y2="42.0364" stroke="#5E2BFF" stroke-width="2.89159"/>
<path d="M98.2334 3.72266L94.2217 8.30762L93.8486 8.7334L94.1729 9.19727L98.4375 15.2891H78.8613V3.72266H98.2334Z" fill="#5E2BFF" stroke="#5E2BFF" stroke-width="1.44579"/>
</g>
</g>
<defs>
<clipPath id="clip0_441_1650">
<rect width="500" height="132" fill="white"/>
</clipPath>
<clipPath id="clip1_441_1650">
<rect width="150" height="150" fill="white" transform="translate(0 -18)"/>
</clipPath>
</defs>
</svg>
