<svg width="1000" height="1000" viewBox="0 0 1000 1000" fill="none" xmlns="http://www.w3.org/2000/svg">
<g clip-path="url(#clip0_433_1161)">
<path d="M788.857 447.018C713.56 355.88 555.443 119.426 352.663 213.976C149.883 308.526 -76.791 871.492 367.138 872.139C533.912 872.383 774.096 894.158 844.466 830.443C961.416 724.576 835.851 503.91 788.857 447.018Z" fill="#E9E8E8"/>
<path d="M815.337 125.179C824.964 125.179 832.768 117.375 832.768 107.749C832.768 98.1219 824.964 90.3179 815.337 90.3179C805.71 90.3179 797.906 98.1219 797.906 107.749C797.906 117.375 805.71 125.179 815.337 125.179Z" fill="#5E2BFF"/>
<path d="M648.435 210.977H289.69C279.38 210.977 270.998 220.715 270.998 232.699V679.86C270.998 691.833 279.38 701.582 289.69 701.582H648.435C658.746 701.582 667.127 691.833 667.127 679.86V232.699C667.127 220.715 658.746 210.977 648.435 210.977Z" fill="#5E2BFF"/>
<path d="M632.89 232.233H305.233C295.813 232.233 288.152 241.134 288.152 252.069V660.5C288.152 671.436 295.813 680.337 305.233 680.337H632.89C642.31 680.337 649.96 671.436 649.96 660.5V252.122C649.96 241.134 642.31 232.233 632.89 232.233Z" fill="white"/>
<path d="M594.965 293.257H567.764C566.359 293.257 565.011 292.699 564.018 291.705C563.024 290.711 562.466 289.364 562.466 287.959C562.466 286.554 563.024 285.206 564.018 284.212C565.011 283.219 566.359 282.661 567.764 282.661H594.933C596.338 282.661 597.686 283.219 598.679 284.212C599.673 285.206 600.231 286.554 600.231 287.959C600.231 289.364 599.673 290.711 598.679 291.705C597.686 292.699 596.338 293.257 594.933 293.257H594.965ZM544.484 293.257H531.737C530.332 293.257 528.984 292.699 527.991 291.705C526.997 290.711 526.439 289.364 526.439 287.959C526.439 286.554 526.997 285.206 527.991 284.212C528.984 283.219 530.332 282.661 531.737 282.661H544.452C545.858 282.661 547.205 283.219 548.199 284.212C549.192 285.206 549.751 286.554 549.751 287.959C549.751 289.364 549.192 290.711 548.199 291.705C547.205 292.699 545.858 293.257 544.452 293.257H544.484ZM508.457 293.257H485.114C483.709 293.257 482.361 292.699 481.367 291.705C480.374 290.711 479.816 289.364 479.816 287.959C479.816 286.554 480.374 285.206 481.367 284.212C482.361 283.219 483.709 282.661 485.114 282.661H508.425C509.83 282.661 511.178 283.219 512.172 284.212C513.165 285.206 513.723 286.554 513.723 287.959C513.723 289.364 513.165 290.711 512.172 291.705C511.178 292.699 509.83 293.257 508.425 293.257H508.457ZM459.715 293.257H425.775C424.37 293.257 423.022 292.699 422.028 291.705C421.035 290.711 420.477 289.364 420.477 287.959C420.477 286.554 421.035 285.206 422.028 284.212C423.022 283.219 424.37 282.661 425.775 282.661H459.683C461.088 282.661 462.435 283.219 463.429 284.212C464.423 285.206 464.981 286.554 464.981 287.959C464.981 289.364 464.423 290.711 463.429 291.705C462.435 292.699 461.088 293.257 459.683 293.257H459.715ZM402.495 293.257H389.748C388.343 293.257 386.995 292.699 386.001 291.705C385.008 290.711 384.45 289.364 384.45 287.959C384.45 286.554 385.008 285.206 386.001 284.212C386.995 283.219 388.343 282.661 389.748 282.661H402.463C403.868 282.661 405.216 283.219 406.209 284.212C407.203 285.206 407.761 286.554 407.761 287.959C407.761 289.364 407.203 290.711 406.209 291.705C405.216 292.699 403.868 293.257 402.463 293.257H402.495ZM366.468 293.257H343.124C341.719 293.257 340.372 292.699 339.378 291.705C338.384 290.711 337.826 289.364 337.826 287.959C337.826 286.554 338.384 285.206 339.378 284.212C340.372 283.219 341.719 282.661 343.124 282.661H366.436C367.841 282.661 369.189 283.219 370.182 284.212C371.176 285.206 371.734 286.554 371.734 287.959C371.734 289.364 371.176 290.711 370.182 291.705C369.189 292.699 367.841 293.257 366.436 293.257H366.468Z" fill="#261D2E"/>
<path d="M594.965 330.534H567.764C566.359 330.534 565.011 329.976 564.018 328.982C563.024 327.989 562.466 326.641 562.466 325.236C562.466 323.831 563.024 322.483 564.018 321.49C565.011 320.496 566.359 319.938 567.764 319.938H594.933C596.338 319.938 597.686 320.496 598.679 321.49C599.673 322.483 600.231 323.831 600.231 325.236C600.231 326.641 599.673 327.989 598.679 328.982C597.686 329.976 596.338 330.534 594.933 330.534H594.965ZM544.452 330.534H531.737C530.332 330.534 528.984 329.976 527.991 328.982C526.997 327.989 526.439 326.641 526.439 325.236C526.439 323.831 526.997 322.483 527.991 321.49C528.984 320.496 530.332 319.938 531.737 319.938H544.452C545.858 319.938 547.205 320.496 548.199 321.49C549.192 322.483 549.751 323.831 549.751 325.236C549.751 326.641 549.192 327.989 548.199 328.982C547.205 329.976 545.858 330.534 544.452 330.534ZM508.425 330.534H485.114C483.709 330.534 482.361 329.976 481.367 328.982C480.374 327.989 479.816 326.641 479.816 325.236C479.816 323.831 480.374 322.483 481.367 321.49C482.361 320.496 483.709 319.938 485.114 319.938H508.425C509.83 319.938 511.178 320.496 512.172 321.49C513.165 322.483 513.723 323.831 513.723 325.236C513.723 326.641 513.165 327.989 512.172 328.982C511.178 329.976 509.83 330.534 508.425 330.534ZM459.683 330.534H425.775C424.37 330.534 423.022 329.976 422.028 328.982C421.035 327.989 420.477 326.641 420.477 325.236C420.477 323.831 421.035 322.483 422.028 321.49C423.022 320.496 424.37 319.938 425.775 319.938H459.683C461.088 319.938 462.435 320.496 463.429 321.49C464.423 322.483 464.981 323.831 464.981 325.236C464.981 326.641 464.423 327.989 463.429 328.982C462.435 329.976 461.088 330.534 459.683 330.534ZM402.463 330.534H389.748C388.343 330.534 386.995 329.976 386.001 328.982C385.008 327.989 384.45 326.641 384.45 325.236C384.45 323.831 385.008 322.483 386.001 321.49C386.995 320.496 388.343 319.938 389.748 319.938H402.463C403.868 319.938 405.216 320.496 406.209 321.49C407.203 322.483 407.761 323.831 407.761 325.236C407.761 326.641 407.203 327.989 406.209 328.982C405.216 329.976 403.868 330.534 402.463 330.534ZM366.436 330.534H343.124C341.719 330.534 340.372 329.976 339.378 328.982C338.384 327.989 337.826 326.641 337.826 325.236C337.826 323.831 338.384 322.483 339.378 321.49C340.372 320.496 341.719 319.938 343.124 319.938H366.436C367.841 319.938 369.189 320.496 370.182 321.49C371.176 322.483 371.734 323.831 371.734 325.236C371.734 326.641 371.176 327.989 370.182 328.982C369.189 329.976 367.841 330.534 366.436 330.534Z" fill="#261D2E"/>
<path d="M459.683 367.727H425.775C424.37 367.727 423.022 367.169 422.028 366.175C421.035 365.182 420.477 363.834 420.477 362.429C420.477 361.024 421.035 359.676 422.028 358.683C423.022 357.689 424.37 357.131 425.775 357.131H459.683C461.088 357.131 462.435 357.689 463.429 358.683C464.423 359.676 464.981 361.024 464.981 362.429C464.981 363.834 464.423 365.182 463.429 366.175C462.435 367.169 461.088 367.727 459.683 367.727ZM402.463 367.727H389.748C388.343 367.727 386.995 367.169 386.001 366.175C385.008 365.182 384.45 363.834 384.45 362.429C384.45 361.024 385.008 359.676 386.001 358.683C386.995 357.689 388.343 357.131 389.748 357.131H402.463C403.868 357.131 405.216 357.689 406.209 358.683C407.203 359.676 407.761 361.024 407.761 362.429C407.761 363.834 407.203 365.182 406.209 366.175C405.216 367.169 403.868 367.727 402.463 367.727ZM366.436 367.727H343.124C341.719 367.727 340.372 367.169 339.378 366.175C338.384 365.182 337.826 363.834 337.826 362.429C337.826 361.024 338.384 359.676 339.378 358.683C340.372 357.689 341.719 357.131 343.124 357.131H366.436C367.841 357.131 369.189 357.689 370.182 358.683C371.176 359.676 371.734 361.024 371.734 362.429C371.734 363.834 371.176 365.182 370.182 366.175C369.189 367.169 367.841 367.727 366.436 367.727Z" fill="#261D2E"/>
<path d="M594.965 422.817H567.764C566.359 422.817 565.011 422.259 564.018 421.265C563.024 420.272 562.466 418.924 562.466 417.519C562.466 416.114 563.024 414.766 564.018 413.772C565.011 412.779 566.359 412.221 567.764 412.221H594.933C596.338 412.221 597.686 412.779 598.679 413.772C599.673 414.766 600.231 416.114 600.231 417.519C600.231 418.924 599.673 420.272 598.679 421.265C597.686 422.259 596.338 422.817 594.933 422.817H594.965ZM544.484 422.817H531.737C530.332 422.817 528.984 422.259 527.991 421.265C526.997 420.272 526.439 418.924 526.439 417.519C526.439 416.114 526.997 414.766 527.991 413.772C528.984 412.779 530.332 412.221 531.737 412.221H544.452C545.858 412.221 547.205 412.779 548.199 413.772C549.192 414.766 549.751 416.114 549.751 417.519C549.751 418.924 549.192 420.272 548.199 421.265C547.205 422.259 545.858 422.817 544.452 422.817H544.484ZM508.457 422.817H485.114C483.709 422.817 482.361 422.259 481.367 421.265C480.374 420.272 479.816 418.924 479.816 417.519C479.816 416.114 480.374 414.766 481.367 413.772C482.361 412.779 483.709 412.221 485.114 412.221H508.425C509.83 412.221 511.178 412.779 512.172 413.772C513.165 414.766 513.723 416.114 513.723 417.519C513.723 418.924 513.165 420.272 512.172 421.265C511.178 422.259 509.83 422.817 508.425 422.817H508.457ZM459.715 422.817H425.775C424.37 422.817 423.022 422.259 422.028 421.265C421.035 420.272 420.477 418.924 420.477 417.519C420.477 416.114 421.035 414.766 422.028 413.772C423.022 412.779 424.37 412.221 425.775 412.221H459.683C461.088 412.221 462.435 412.779 463.429 413.772C464.423 414.766 464.981 416.114 464.981 417.519C464.981 418.924 464.423 420.272 463.429 421.265C462.435 422.259 461.088 422.817 459.683 422.817H459.715ZM402.495 422.817H389.748C388.343 422.817 386.995 422.259 386.001 421.265C385.008 420.272 384.45 418.924 384.45 417.519C384.45 416.114 385.008 414.766 386.001 413.772C386.995 412.779 388.343 412.221 389.748 412.221H402.463C403.868 412.221 405.216 412.779 406.209 413.772C407.203 414.766 407.761 416.114 407.761 417.519C407.761 418.924 407.203 420.272 406.209 421.265C405.216 422.259 403.868 422.817 402.463 422.817H402.495ZM366.468 422.817H343.124C341.719 422.817 340.372 422.259 339.378 421.265C338.384 420.272 337.826 418.924 337.826 417.519C337.826 416.114 338.384 414.766 339.378 413.772C340.372 412.779 341.719 412.221 343.124 412.221H366.436C367.841 412.221 369.189 412.779 370.182 413.772C371.176 414.766 371.734 416.114 371.734 417.519C371.734 418.924 371.176 420.272 370.182 421.265C369.189 422.259 367.841 422.817 366.436 422.817H366.468Z" fill="#261D2E"/>
<path d="M594.965 460.052H567.764C566.359 460.052 565.011 459.494 564.018 458.5C563.024 457.506 562.466 456.159 562.466 454.754C562.466 453.349 563.024 452.001 564.018 451.007C565.011 450.014 566.359 449.456 567.764 449.456H594.933C596.338 449.456 597.686 450.014 598.679 451.007C599.673 452.001 600.231 453.349 600.231 454.754C600.231 456.159 599.673 457.506 598.679 458.5C597.686 459.494 596.338 460.052 594.933 460.052H594.965ZM544.484 460.052H531.737C530.332 460.052 528.984 459.494 527.991 458.5C526.997 457.506 526.439 456.159 526.439 454.754C526.439 453.349 526.997 452.001 527.991 451.007C528.984 450.014 530.332 449.456 531.737 449.456H544.452C545.858 449.456 547.205 450.014 548.199 451.007C549.192 452.001 549.751 453.349 549.751 454.754C549.751 456.159 549.192 457.506 548.199 458.5C547.205 459.494 545.858 460.052 544.452 460.052H544.484ZM508.457 460.052H485.114C483.709 460.052 482.361 459.494 481.367 458.5C480.374 457.506 479.816 456.159 479.816 454.754C479.816 453.349 480.374 452.001 481.367 451.007C482.361 450.014 483.709 449.456 485.114 449.456H508.425C509.83 449.456 511.178 450.014 512.172 451.007C513.165 452.001 513.723 453.349 513.723 454.754C513.723 456.159 513.165 457.506 512.172 458.5C511.178 459.494 509.83 460.052 508.425 460.052H508.457ZM459.715 460.052H425.775C424.37 460.052 423.022 459.494 422.028 458.5C421.035 457.506 420.477 456.159 420.477 454.754C420.477 453.349 421.035 452.001 422.028 451.007C423.022 450.014 424.37 449.456 425.775 449.456H459.683C461.088 449.456 462.435 450.014 463.429 451.007C464.423 452.001 464.981 453.349 464.981 454.754C464.981 456.159 464.423 457.506 463.429 458.5C462.435 459.494 461.088 460.052 459.683 460.052H459.715ZM402.495 460.052H389.748C388.343 460.052 386.995 459.494 386.001 458.5C385.008 457.506 384.45 456.159 384.45 454.754C384.45 453.349 385.008 452.001 386.001 451.007C386.995 450.014 388.343 449.456 389.748 449.456H402.463C403.868 449.456 405.216 450.014 406.209 451.007C407.203 452.001 407.761 453.349 407.761 454.754C407.761 456.159 407.203 457.506 406.209 458.5C405.216 459.494 403.868 460.052 402.463 460.052H402.495ZM366.468 460.052H343.124C341.719 460.052 340.372 459.494 339.378 458.5C338.384 457.506 337.826 456.159 337.826 454.754C337.826 453.349 338.384 452.001 339.378 451.007C340.372 450.014 341.719 449.456 343.124 449.456H366.436C367.841 449.456 369.189 450.014 370.182 451.007C371.176 452.001 371.734 453.349 371.734 454.754C371.734 456.159 371.176 457.506 370.182 458.5C369.189 459.494 367.841 460.052 366.436 460.052H366.468Z" fill="#261D2E"/>
<path d="M459.683 497.297H425.775C424.37 497.297 423.022 496.739 422.028 495.746C421.035 494.752 420.477 493.404 420.477 491.999C420.477 490.594 421.035 489.247 422.028 488.253C423.022 487.259 424.37 486.701 425.775 486.701H459.683C461.088 486.701 462.435 487.259 463.429 488.253C464.423 489.247 464.981 490.594 464.981 491.999C464.981 493.404 464.423 494.752 463.429 495.746C462.435 496.739 461.088 497.297 459.683 497.297ZM402.463 497.297H389.748C388.343 497.297 386.995 496.739 386.001 495.746C385.008 494.752 384.45 493.404 384.45 491.999C384.45 490.594 385.008 489.247 386.001 488.253C386.995 487.259 388.343 486.701 389.748 486.701H402.463C403.868 486.701 405.216 487.259 406.209 488.253C407.203 489.247 407.761 490.594 407.761 491.999C407.761 493.404 407.203 494.752 406.209 495.746C405.216 496.739 403.868 497.297 402.463 497.297ZM366.436 497.297H343.124C341.719 497.297 340.372 496.739 339.378 495.746C338.384 494.752 337.826 493.404 337.826 491.999C337.826 490.594 338.384 489.247 339.378 488.253C340.372 487.259 341.719 486.701 343.124 486.701H366.436C367.841 486.701 369.189 487.259 370.182 488.253C371.176 489.247 371.734 490.594 371.734 491.999C371.734 493.404 371.176 494.752 370.182 495.746C369.189 496.739 367.841 497.297 366.436 497.297Z" fill="#261D2E"/>
<path d="M594.965 550.851H567.764C566.359 550.851 565.011 550.292 564.018 549.299C563.024 548.305 562.466 546.958 562.466 545.553C562.466 544.147 563.024 542.8 564.018 541.806C565.011 540.813 566.359 540.254 567.764 540.254H594.933C596.338 540.254 597.686 540.813 598.679 541.806C599.673 542.8 600.231 544.147 600.231 545.553C600.231 546.958 599.673 548.305 598.679 549.299C597.686 550.292 596.338 550.851 594.933 550.851H594.965ZM544.484 550.851H531.737C530.332 550.851 528.984 550.292 527.991 549.299C526.997 548.305 526.439 546.958 526.439 545.553C526.439 544.147 526.997 542.8 527.991 541.806C528.984 540.813 530.332 540.254 531.737 540.254H544.452C545.858 540.254 547.205 540.813 548.199 541.806C549.192 542.8 549.751 544.147 549.751 545.553C549.751 546.958 549.192 548.305 548.199 549.299C547.205 550.292 545.858 550.851 544.452 550.851H544.484ZM508.457 550.851H485.114C483.709 550.851 482.361 550.292 481.367 549.299C480.374 548.305 479.816 546.958 479.816 545.553C479.816 544.147 480.374 542.8 481.367 541.806C482.361 540.813 483.709 540.254 485.114 540.254H508.425C509.83 540.254 511.178 540.813 512.172 541.806C513.165 542.8 513.723 544.147 513.723 545.553C513.723 546.958 513.165 548.305 512.172 549.299C511.178 550.292 509.83 550.851 508.425 550.851H508.457ZM459.715 550.851H425.775C424.37 550.851 423.022 550.292 422.028 549.299C421.035 548.305 420.477 546.958 420.477 545.553C420.477 544.147 421.035 542.8 422.028 541.806C423.022 540.813 424.37 540.254 425.775 540.254H459.683C461.088 540.254 462.435 540.813 463.429 541.806C464.423 542.8 464.981 544.147 464.981 545.553C464.981 546.958 464.423 548.305 463.429 549.299C462.435 550.292 461.088 550.851 459.683 550.851H459.715ZM402.495 550.851H389.748C388.343 550.851 386.995 550.292 386.001 549.299C385.008 548.305 384.45 546.958 384.45 545.553C384.45 544.147 385.008 542.8 386.001 541.806C386.995 540.813 388.343 540.254 389.748 540.254H402.463C403.868 540.254 405.216 540.813 406.209 541.806C407.203 542.8 407.761 544.147 407.761 545.553C407.761 546.958 407.203 548.305 406.209 549.299C405.216 550.292 403.868 550.851 402.463 550.851H402.495ZM366.468 550.851H343.124C341.719 550.851 340.372 550.292 339.378 549.299C338.384 548.305 337.826 546.958 337.826 545.553C337.826 544.147 338.384 542.8 339.378 541.806C340.372 540.813 341.719 540.254 343.124 540.254H366.436C367.841 540.254 369.189 540.813 370.182 541.806C371.176 542.8 371.734 544.147 371.734 545.553C371.734 546.958 371.176 548.305 370.182 549.299C369.189 550.292 367.841 550.851 366.436 550.851H366.468Z" fill="#261D2E"/>
<path d="M594.965 588.086H567.764C566.359 588.086 565.011 587.528 564.018 586.534C563.024 585.541 562.466 584.193 562.466 582.788C562.466 581.383 563.024 580.035 564.018 579.042C565.011 578.048 566.359 577.49 567.764 577.49H594.933C596.338 577.49 597.686 578.048 598.679 579.042C599.673 580.035 600.231 581.383 600.231 582.788C600.231 584.193 599.673 585.541 598.679 586.534C597.686 587.528 596.338 588.086 594.933 588.086H594.965ZM544.484 588.086H531.737C530.332 588.086 528.984 587.528 527.991 586.534C526.997 585.541 526.439 584.193 526.439 582.788C526.439 581.383 526.997 580.035 527.991 579.042C528.984 578.048 530.332 577.49 531.737 577.49H544.452C545.858 577.49 547.205 578.048 548.199 579.042C549.192 580.035 549.751 581.383 549.751 582.788C549.751 584.193 549.192 585.541 548.199 586.534C547.205 587.528 545.858 588.086 544.452 588.086H544.484ZM508.457 588.086H485.114C483.709 588.086 482.361 587.528 481.367 586.534C480.374 585.541 479.816 584.193 479.816 582.788C479.816 581.383 480.374 580.035 481.367 579.042C482.361 578.048 483.709 577.49 485.114 577.49H508.425C509.83 577.49 511.178 578.048 512.172 579.042C513.165 580.035 513.723 581.383 513.723 582.788C513.723 584.193 513.165 585.541 512.172 586.534C511.178 587.528 509.83 588.086 508.425 588.086H508.457ZM459.715 588.086H425.775C424.37 588.086 423.022 587.528 422.028 586.534C421.035 585.541 420.477 584.193 420.477 582.788C420.477 581.383 421.035 580.035 422.028 579.042C423.022 578.048 424.37 577.49 425.775 577.49H459.683C461.088 577.49 462.435 578.048 463.429 579.042C464.423 580.035 464.981 581.383 464.981 582.788C464.981 584.193 464.423 585.541 463.429 586.534C462.435 587.528 461.088 588.086 459.683 588.086H459.715ZM402.495 588.086H389.748C388.343 588.086 386.995 587.528 386.001 586.534C385.008 585.541 384.45 584.193 384.45 582.788C384.45 581.383 385.008 580.035 386.001 579.042C386.995 578.048 388.343 577.49 389.748 577.49H402.463C403.868 577.49 405.216 578.048 406.209 579.042C407.203 580.035 407.761 581.383 407.761 582.788C407.761 584.193 407.203 585.541 406.209 586.534C405.216 587.528 403.868 588.086 402.463 588.086H402.495ZM366.468 588.086H343.124C341.719 588.086 340.372 587.528 339.378 586.534C338.384 585.541 337.826 584.193 337.826 582.788C337.826 581.383 338.384 580.035 339.378 579.042C340.372 578.048 341.719 577.49 343.124 577.49H366.436C367.841 577.49 369.189 578.048 370.182 579.042C371.176 580.035 371.734 581.383 371.734 582.788C371.734 584.193 371.176 585.541 370.182 586.534C369.189 587.528 367.841 588.086 366.436 588.086H366.468Z" fill="#261D2E"/>
<path d="M459.683 625.321H425.775C424.37 625.321 423.022 624.763 422.028 623.769C421.035 622.776 420.477 621.428 420.477 620.023C420.477 618.618 421.035 617.27 422.028 616.277C423.022 615.283 424.37 614.725 425.775 614.725H459.683C461.088 614.725 462.435 615.283 463.429 616.277C464.423 617.27 464.981 618.618 464.981 620.023C464.981 621.428 464.423 622.776 463.429 623.769C462.435 624.763 461.088 625.321 459.683 625.321ZM402.463 625.321H389.748C388.343 625.321 386.995 624.763 386.001 623.769C385.008 622.776 384.45 621.428 384.45 620.023C384.45 618.618 385.008 617.27 386.001 616.277C386.995 615.283 388.343 614.725 389.748 614.725H402.463C403.868 614.725 405.216 615.283 406.209 616.277C407.203 617.27 407.761 618.618 407.761 620.023C407.761 621.428 407.203 622.776 406.209 623.769C405.216 624.763 403.868 625.321 402.463 625.321ZM366.436 625.321H343.124C341.719 625.321 340.372 624.763 339.378 623.769C338.384 622.776 337.826 621.428 337.826 620.023C337.826 618.618 338.384 617.27 339.378 616.277C340.372 615.283 341.719 614.725 343.124 614.725H366.436C367.841 614.725 369.189 615.283 370.182 616.277C371.176 617.27 371.734 618.618 371.734 620.023C371.734 621.428 371.176 622.776 370.182 623.769C369.189 624.763 367.841 625.321 366.436 625.321Z" fill="#261D2E"/>
<path d="M815.337 107.749H704.892L524.396 288.245" stroke="#261D2E" stroke-width="4.23849" stroke-linecap="round" stroke-linejoin="round"/>
<path d="M118.963 296.446H227.553L348.742 417.625" stroke="#261D2E" stroke-width="4.23849" stroke-linecap="round" stroke-linejoin="round"/>
<path d="M118.962 313.877C128.589 313.877 136.393 306.073 136.393 296.446C136.393 286.819 128.589 279.015 118.962 279.015C109.335 279.015 101.531 286.819 101.531 296.446C101.531 306.073 109.335 313.877 118.962 313.877Z" fill="#5E2BFF"/>
<path d="M225.814 347.806H25.5451C24.421 347.806 23.3429 347.36 22.5481 346.565C21.7532 345.77 21.3066 344.692 21.3066 343.568C21.3066 342.443 21.7532 341.365 22.5481 340.571C23.3429 339.776 24.421 339.329 25.5451 339.329H225.814C226.938 339.329 228.016 339.776 228.811 340.571C229.606 341.365 230.052 342.443 230.052 343.568C230.052 344.692 229.606 345.77 228.811 346.565C228.016 347.36 226.938 347.806 225.814 347.806Z" fill="#261D2E"/>
<path d="M225.814 373.417H25.5451C24.421 373.417 23.3429 372.971 22.5481 372.176C21.7532 371.381 21.3066 370.303 21.3066 369.179C21.3066 368.055 21.7532 366.976 22.5481 366.182C23.3429 365.387 24.421 364.94 25.5451 364.94H225.814C226.938 364.94 228.016 365.387 228.811 366.182C229.606 366.976 230.052 368.055 230.052 369.179C230.052 370.303 229.606 371.381 228.811 372.176C228.016 372.971 226.938 373.417 225.814 373.417Z" fill="#261D2E"/>
<path d="M124.94 399.028H25.4943C24.3702 399.028 23.2922 398.582 22.4973 397.787C21.7024 396.992 21.2559 395.914 21.2559 394.79C21.2559 393.666 21.7024 392.588 22.4973 391.793C23.2922 390.998 24.3702 390.551 25.4943 390.551H124.94C126.064 390.551 127.142 390.998 127.937 391.793C128.732 392.588 129.178 393.666 129.178 394.79C129.178 395.914 128.732 396.992 127.937 397.787C127.142 398.582 126.064 399.028 124.94 399.028Z" fill="#261D2E"/>
<path d="M920.334 151.977H720.002C718.878 151.977 717.8 151.531 717.005 150.736C716.21 149.941 715.764 148.863 715.764 147.739C715.764 146.615 716.21 145.537 717.005 144.742C717.8 143.947 718.878 143.5 720.002 143.5H920.334C921.458 143.5 922.536 143.947 923.331 144.742C924.126 145.537 924.573 146.615 924.573 147.739C924.573 148.863 924.126 149.941 923.331 150.736C922.536 151.531 921.458 151.977 920.334 151.977Z" fill="#261D2E"/>
<path d="M920.334 177.578H720.002C718.878 177.578 717.8 177.131 717.005 176.336C716.21 175.542 715.764 174.463 715.764 173.339C715.764 172.215 716.21 171.137 717.005 170.342C717.8 169.547 718.878 169.101 720.002 169.101H920.334C921.458 169.101 922.536 169.547 923.331 170.342C924.126 171.137 924.573 172.215 924.573 173.339C924.573 174.463 924.126 175.542 923.331 176.336C922.536 177.131 921.458 177.578 920.334 177.578Z" fill="#261D2E"/>
<path d="M819.458 203.189H720.002C718.878 203.189 717.8 202.742 717.005 201.947C716.21 201.153 715.764 200.075 715.764 198.95C715.764 197.826 716.21 196.748 717.005 195.953C717.8 195.158 718.878 194.712 720.002 194.712H819.458C820.582 194.712 821.66 195.158 822.455 195.953C823.25 196.748 823.697 197.826 823.697 198.95C823.697 200.075 823.25 201.153 822.455 201.947C821.66 202.742 820.582 203.189 819.458 203.189Z" fill="#261D2E"/>
<path d="M932.605 502.331L950.831 512.673L938.698 578.051C938.698 578.051 914.655 588.107 911.89 590.565C909.124 593.024 914.719 612.69 926.533 611.366C938.348 610.041 950.163 595.853 952.939 590.798C955.715 585.744 977.777 518.267 978.635 508.466C979.493 498.664 944.272 473.763 944.272 473.763L932.605 502.331Z" fill="white"/>
</g>
<defs>
<clipPath id="clip0_433_1161">
<rect width="957.898" height="819.088" fill="white" transform="translate(21 90)"/>
</clipPath>
</defs>
</svg>
