<svg width="1000" height="1000" viewBox="0 0 1000 1000" fill="none" xmlns="http://www.w3.org/2000/svg">
<g clip-path="url(#clip0_433_1164)">
<path d="M499.855 164.267C706.328 164.267 873.71 397.297 873.71 561.936C873.71 726.575 706.328 860.054 499.855 860.054C293.382 860.054 126 726.584 126 561.936C126 397.288 293.382 164.267 499.855 164.267Z" fill="#E9E8E8"/>
<path d="M640.654 255.885C640.547 252.842 639.265 249.959 637.078 247.841C634.89 245.723 631.968 244.534 628.923 244.524L222.979 245.968C221.468 245.973 219.974 246.281 218.585 246.874C217.195 247.467 215.939 248.333 214.889 249.42C213.84 250.507 213.02 251.793 212.477 253.203C211.933 254.612 211.678 256.117 211.726 257.627L227.608 810.64C227.707 813.685 228.986 816.572 231.175 818.691C233.365 820.81 236.293 821.994 239.339 821.992L645.31 820.548C646.822 820.546 648.319 820.241 649.711 819.65C651.103 819.06 652.362 818.196 653.414 817.109C654.466 816.023 655.289 814.736 655.835 813.326C656.38 811.915 656.637 810.41 656.59 808.898L640.654 255.885Z" fill="#5E2BFF"/>
<path d="M663.511 778.353L295.855 779.688L250.781 550.737C257.919 478.718 253.94 365.334 243.229 287.856L610.893 286.548L618.356 546.216L663.511 778.353Z" fill="white"/>
<path d="M522.803 286.864L610.893 286.548L618.356 546.216L663.475 778.353L295.855 779.688L250.781 550.737C257.919 478.718 253.94 365.334 243.229 287.856L334.369 287.531" stroke="#261D2E" stroke-width="3.60951" stroke-linecap="round" stroke-linejoin="round"/>
<path d="M339.295 403.162L278.565 403.379L276.814 342.658L337.544 342.441L339.295 403.162Z" fill="white"/>
<path d="M324.903 342.486L276.824 342.658L278.566 403.397L339.296 403.18L338.312 368.962" stroke="#352C2C" stroke-width="3.60951" stroke-linecap="round" stroke-linejoin="round"/>
<path d="M342.425 512.35L281.695 512.557L279.953 451.836L340.683 451.62L342.425 512.35Z" fill="white"/>
<path d="M327.4 451.674L279.953 451.836L281.695 512.584L342.425 512.368L341.243 471.075" stroke="#352C2C" stroke-width="3.60951" stroke-linecap="round" stroke-linejoin="round"/>
<path d="M360.554 621.474L299.833 621.691L285.098 561.015L345.828 560.798L360.554 621.474Z" fill="white"/>
<path d="M338.41 560.826L285.098 561.015L299.833 621.691L360.554 621.474L350.692 580.967" stroke="#352C2C" stroke-width="3.60951" stroke-linecap="round" stroke-linejoin="round"/>
<path d="M387.041 730.581L326.32 730.798L311.584 670.122L372.314 669.905L387.041 730.581Z" fill="white"/>
<path d="M362.487 669.941L311.584 670.122L326.329 730.798L387.05 730.581L376.817 688.413" stroke="#352C2C" stroke-width="3.60951" stroke-linecap="round" stroke-linejoin="round"/>
<path d="M289.781 387.867C292.75 390.574 295.647 393.426 298.715 395.988C301.783 398.551 305.474 399.147 308.749 396.728C311.682 394.572 313.784 391.179 316.031 388.345C318.384 385.337 320.724 382.347 323.052 379.375C332.551 367.091 341.746 354.578 350.638 341.837C351.865 340.086 350.809 337.37 349.04 336.368C348.126 335.859 347.049 335.726 346.039 335.997C345.028 336.268 344.163 336.922 343.626 337.821C335.842 348.968 327.819 359.935 319.56 370.722C315.403 376.136 311.192 381.514 306.926 386.856C306.448 387.452 306.024 388.056 305.501 388.661C305.194 389.022 304.382 389.617 304.228 390.069C304.075 390.52 303.651 390.231 304.3 390.384C303.93 390.117 303.585 389.815 303.272 389.482L295.322 382.209C291.469 378.69 285.964 384.366 289.817 387.894L289.781 387.867Z" fill="#261D2E"/>
<path d="M292.885 495.629C295.844 498.336 298.741 501.187 301.809 503.75C304.877 506.313 308.568 506.9 311.844 504.49C314.776 502.324 316.888 498.932 319.126 496.107C321.478 493.129 323.818 490.139 326.146 487.137C335.645 474.853 344.84 462.34 353.732 449.599C354.959 447.848 353.903 445.087 352.135 444.121C351.219 443.615 350.142 443.484 349.132 443.757C348.122 444.03 347.257 444.685 346.72 445.583C338.936 456.73 330.914 467.697 322.654 478.484C318.497 483.898 314.286 489.276 310.021 494.618C309.542 495.214 309.118 495.809 308.595 496.423C308.288 496.784 307.476 497.379 307.323 497.831C307.169 498.282 306.745 497.993 307.395 498.146C307.024 497.879 306.68 497.577 306.366 497.244L298.353 489.944C294.5 486.425 288.995 492.092 292.857 495.629H292.885Z" fill="#261D2E"/>
<path d="M307.052 603.346C310.607 606.053 314.109 608.904 317.736 611.467C321.364 614.03 325.172 614.616 327.933 612.207C330.406 610.041 331.786 606.648 333.428 603.824C335.149 600.858 336.852 597.871 338.536 594.863C345.412 582.591 351.939 570.087 358.118 557.352C358.966 555.601 357.332 552.894 355.347 551.883C353.037 550.71 351.07 551.585 350.222 553.336C344.807 564.471 339.125 575.432 333.176 586.219C330.168 591.633 327.097 597.008 323.963 602.344C323.611 602.931 323.277 603.535 322.916 604.149C322.69 604.51 322.013 605.105 321.941 605.557C321.869 606.008 321.4 605.719 322.086 605.872C321.649 605.606 321.236 605.304 320.849 604.97L311.338 597.706C306.736 594.187 302.432 599.854 307.052 603.382V603.346Z" fill="#261D2E"/>
<path d="M333.195 711.026C336.741 713.734 340.242 716.585 343.87 719.148C347.497 721.711 351.305 722.297 354.067 719.888C356.548 717.722 357.929 714.329 359.571 711.505C361.298 708.497 363 705.51 364.679 702.544C371.555 690.266 378.079 677.762 384.251 665.032C385.108 663.282 383.466 660.52 381.49 659.564C379.171 658.382 377.213 659.257 376.355 661.017C370.941 672.152 365.262 683.113 359.318 693.899C356.31 699.314 353.239 704.686 350.105 710.016C349.753 710.611 349.419 711.207 349.049 711.82C348.824 712.181 348.147 712.777 348.075 713.219C348.003 713.661 347.533 713.391 348.219 713.544C347.787 713.276 347.377 712.974 346.992 712.642L337.481 705.423C332.879 701.903 328.574 707.57 333.195 711.099V711.026Z" fill="#261D2E"/>
<path d="M493.475 298.405L364.723 298.865C362 298.86 359.385 297.797 357.429 295.902C355.473 294.007 354.329 291.426 354.238 288.704L354.175 286.575C354.134 285.246 354.36 283.922 354.84 282.682C355.321 281.442 356.045 280.311 356.971 279.357C357.897 278.402 359.005 277.644 360.23 277.126C361.455 276.608 362.771 276.341 364.101 276.342L492.861 275.882C495.588 275.894 498.202 276.966 500.154 278.87C502.105 280.774 503.24 283.362 503.32 286.087L503.383 288.217C503.418 289.541 503.187 290.858 502.705 292.092C502.223 293.325 501.499 294.45 500.576 295.399C499.653 296.349 498.549 297.104 497.329 297.62C496.11 298.136 494.799 298.403 493.475 298.405Z" fill="#261D2E"/>
<path d="M492.872 275.882C495.596 275.897 498.209 276.97 500.158 278.874C502.108 280.778 503.242 283.364 503.321 286.088L503.384 288.218C503.425 289.547 503.199 290.871 502.719 292.11C502.238 293.35 501.514 294.481 500.588 295.436C499.662 296.39 498.554 297.149 497.329 297.667C496.104 298.185 494.788 298.451 493.458 298.451L364.707 298.911C361.99 298.894 359.386 297.827 357.438 295.933C355.49 294.039 354.351 291.465 354.257 288.75L354.194 286.62C354.153 285.291 354.379 283.967 354.86 282.728C355.34 281.488 356.065 280.357 356.991 279.402C357.917 278.448 359.025 277.689 360.25 277.171C361.474 276.653 362.791 276.387 364.12 276.387L492.881 275.927M492.881 273.364H492.827L364.075 273.825C362.406 273.82 360.753 274.152 359.214 274.799C357.676 275.446 356.283 276.396 355.119 277.592C353.954 278.788 353.043 280.206 352.437 281.762C351.832 283.318 351.546 284.979 351.595 286.647L351.659 288.777C351.782 292.154 353.204 295.353 355.628 297.706C358.052 300.06 361.292 301.387 364.671 301.41H364.716L493.467 300.95C495.139 300.952 496.794 300.618 498.333 299.967C499.873 299.316 501.266 298.361 502.429 297.161C503.592 295.96 504.501 294.537 505.102 292.977C505.704 291.418 505.985 289.753 505.929 288.082L505.866 285.953C505.743 282.576 504.321 279.377 501.896 277.023C499.472 274.67 496.233 273.343 492.854 273.319L492.881 273.364Z" fill="#261D2E"/>
<path d="M362.484 353.576H560.701" stroke="#261D2E" stroke-width="3.60951" stroke-linecap="round" stroke-linejoin="round"/>
<path d="M362.484 372.905H560.701" stroke="#261D2E" stroke-width="3.60951" stroke-linecap="round" stroke-linejoin="round"/>
<path d="M362.484 392.243H456.458" stroke="#261D2E" stroke-width="3.60951" stroke-linecap="round" stroke-linejoin="round"/>
<path d="M362.484 459.083H560.701" stroke="#261D2E" stroke-width="3.60951" stroke-linecap="round" stroke-linejoin="round"/>
<path d="M362.484 478.42H560.701" stroke="#261D2E" stroke-width="3.60951" stroke-linecap="round" stroke-linejoin="round"/>
<path d="M362.484 497.749H456.458" stroke="#261D2E" stroke-width="3.60951" stroke-linecap="round" stroke-linejoin="round"/>
<path d="M371.32 575.282H569.546" stroke="#261D2E" stroke-width="3.60951" stroke-linecap="round" stroke-linejoin="round"/>
<path d="M378.188 594.71H576.404" stroke="#261D2E" stroke-width="3.60951" stroke-linecap="round" stroke-linejoin="round"/>
<path d="M385.045 614.129H479.019" stroke="#261D2E" stroke-width="3.60951" stroke-linecap="round" stroke-linejoin="round"/>
<path d="M393.41 680.923H591.636" stroke="#261D2E" stroke-width="3.60951" stroke-linecap="round" stroke-linejoin="round"/>
<path d="M400.277 700.352H598.494" stroke="#261D2E" stroke-width="3.60951" stroke-linecap="round" stroke-linejoin="round"/>
<path d="M407.146 719.771H501.12" stroke="#261D2E" stroke-width="3.60951" stroke-linecap="round" stroke-linejoin="round"/>
</g>
<defs>
<clipPath id="clip0_433_1164">
<rect width="748.071" height="721" fill="white" transform="translate(126 139)"/>
</clipPath>
</defs>
</svg>
