<svg width="1000" height="1000" viewBox="0 0 1000 1000" fill="none" xmlns="http://www.w3.org/2000/svg">
<g clip-path="url(#clip0_433_1169)">
<path d="M351.102 398.124C430.843 338.791 611.094 180.833 729.08 272.742C847.065 364.652 848.92 805.982 531.513 758.462C412.275 740.608 234.441 730.753 202.277 676.01C148.834 584.949 301.298 435.156 351.102 398.124Z" fill="#E9E8E8"/>
<path d="M507.15 602.668C506.278 603.725 505.34 604.748 504.336 605.736C504.336 605.736 366.309 745.61 331.98 765.248C297.652 784.886 396.57 693.262 368.386 711.908C340.202 730.555 406.44 652.194 388.547 663.896C370.653 675.598 388.912 639.264 388.912 639.264C307.522 726.195 353.695 648.619 339.916 656.158C326.137 663.698 342.049 636.338 335.342 642.871C328.635 649.404 261.714 711.845 224.444 738.214C187.175 764.582 422.55 523.95 422.55 523.95C423.042 523.467 423.533 522.999 424.025 522.539C424.025 522.539 442.767 498.168 486.458 541.868C530.15 585.567 507.15 602.668 507.15 602.668Z" fill="white"/>
<path d="M510.068 599.314C509.285 600.584 508.3 601.717 507.15 602.668C506.278 603.725 505.34 604.748 504.336 605.736C504.336 605.736 366.309 745.61 331.98 765.248C297.652 784.886 396.57 693.262 368.386 711.908C340.202 730.555 406.44 652.194 388.547 663.896C370.653 675.598 388.912 639.264 388.912 639.264C307.522 726.195 353.695 648.619 339.916 656.158C326.137 663.698 342.049 636.338 335.342 642.871C328.635 649.404 261.714 711.845 224.444 738.214C187.175 764.582 422.55 523.95 422.55 523.95C423.042 523.467 423.533 522.999 424.025 522.539C425.065 521.321 426.284 520.268 427.64 519.416" stroke="#261D2E" stroke-width="3.17122" stroke-linecap="round" stroke-linejoin="round"/>
<path d="M294.957 710.592C298.921 709.229 300.086 714.556 285.126 723.943C270.166 733.33 289.502 712.471 294.957 710.592Z" fill="#5E2BFF"/>
<path d="M351.143 692.738C356.296 690.289 356.803 696.702 336.428 711.314C316.053 725.925 343.992 696.132 351.143 692.738Z" fill="#5E2BFF"/>
<path d="M486.935 640.794C487.656 637.321 483.764 637.202 477.96 651.1C472.157 664.998 485.936 645.614 486.935 640.794Z" fill="#5E2BFF"/>
<path d="M387.54 542.185C389.823 539.474 386.47 537.515 374.744 546.942C363.018 556.368 384.369 545.959 387.54 542.185Z" fill="#5E2BFF"/>
<path d="M434.99 526.131C427.989 530.816 419.752 538.11 409.826 548.551" stroke="#261D2E" stroke-width="3.17122" stroke-linecap="round" stroke-linejoin="round"/>
<path d="M501.34 594.002C490.804 609.145 471.063 626.959 465.664 632.374" stroke="#261D2E" stroke-width="3.17122" stroke-linecap="round" stroke-linejoin="round"/>
<path d="M367.039 613.188C342.93 639.074 342.264 648.96 345.974 647.366C349.494 645.86 366.167 632.81 374.65 624.375" stroke="#261D2E" stroke-width="3.17122" stroke-linecap="round" stroke-linejoin="round"/>
<path d="M410.888 637.417C406.425 641.793 393.502 658.133 391.29 653.273C389.078 648.413 407.661 629.489 409.366 627.657" stroke="#261D2E" stroke-width="3.17122" stroke-linecap="round" stroke-linejoin="round"/>
<path d="M403.8 677.802C398.615 682.86 383.354 699.422 378.613 701.055C373.872 702.688 391.979 679.649 393.85 677.683" stroke="#261D2E" stroke-width="3.17122" stroke-linecap="round" stroke-linejoin="round"/>
<path d="M513.722 707.881L501.83 696.029C534.184 667.274 579.826 613.125 581.491 572.938L668.105 486.372C672.027 490.292 677.345 492.494 682.891 492.494C688.436 492.494 693.754 490.292 697.676 486.372L701.323 490.019C703.744 492.438 705.664 495.311 706.974 498.473C708.284 501.635 708.958 505.025 708.958 508.447C708.958 511.87 708.284 515.259 706.974 518.421C705.664 521.583 703.744 524.456 701.323 526.876L618.42 609.819L513.722 707.881Z" fill="#5E2BFF"/>
<path d="M321.119 515.277L332.972 527.169C361.727 494.815 415.875 449.173 456.062 447.508L543.318 360.205C541.467 358.354 539.998 356.156 538.996 353.738C537.994 351.319 537.478 348.727 537.478 346.109C537.478 343.491 537.994 340.898 538.996 338.48C539.998 336.061 541.467 333.864 543.318 332.013L538.982 327.676C536.562 325.256 533.689 323.336 530.527 322.026C527.365 320.716 523.976 320.042 520.553 320.042C517.13 320.042 513.741 320.716 510.579 322.026C507.417 323.336 504.544 325.256 502.124 327.676L419.181 410.619L321.119 515.277Z" fill="#5E2BFF"/>
<path d="M432.371 499.787L528.558 595.974C526.791 597.742 524.393 598.735 521.893 598.735C519.393 598.735 516.995 597.742 515.227 595.974L432.354 513.101C430.594 511.331 429.607 508.936 429.61 506.44C429.613 503.944 430.606 501.552 432.371 499.787Z" fill="#261D2E"/>
<path d="M685.252 496.646L602.452 558.16L538.346 605.776L423.477 490.898L456.37 446.628L471.092 426.808L532.614 343.984C540.304 333.622 551.419 321.603 565.23 309.457C565.523 309.188 565.84 308.918 566.142 308.664C598.551 280.385 645.422 251.583 697.747 241.316C702.98 240.293 708.283 239.342 713.603 238.47C754.092 231.826 794.073 229.749 796.848 232.484C799.622 235.219 796.499 271.189 788.92 313.699C788.071 318.456 787.152 323.355 786.192 328.27C775.664 381.333 746.853 430.495 718.875 463.777C707.023 477.896 695.321 489.162 685.252 496.646Z" fill="#5E2BFF"/>
<path d="M688.656 388.849C715.444 388.849 737.16 367.133 737.16 340.345C737.16 313.557 715.444 291.841 688.656 291.841C661.868 291.841 640.152 313.557 640.152 340.345C640.152 367.133 661.868 388.849 688.656 388.849Z" fill="#5E2BFF" stroke="#261D2E" stroke-width="3.17122" stroke-miterlimit="10"/>
<path d="M718.482 370.147C717.536 371.093 716.563 371.978 715.564 372.802C709.535 377.795 702.236 381.011 694.484 382.092C686.731 383.172 678.831 382.074 671.666 378.921C664.502 375.768 658.356 370.684 653.917 364.237C649.477 357.791 646.918 350.236 646.527 342.418C646.136 334.6 647.928 326.828 651.702 319.971C655.476 313.113 661.084 307.441 667.898 303.588C674.711 299.736 682.463 297.855 690.284 298.157C698.106 298.458 705.69 300.93 712.187 305.295C713.731 306.34 715.206 307.484 716.603 308.72C717.245 309.283 717.871 309.878 718.49 310.496C726.215 318.222 730.64 328.646 730.832 339.57C731.024 350.494 726.969 361.067 719.52 369.06C719.187 369.457 718.838 369.814 718.482 370.147Z" fill="white" stroke="#261D2E" stroke-width="3.17122" stroke-miterlimit="10"/>
<path d="M788.825 313.707C769.364 283.586 743.704 257.961 713.557 238.541C754.045 231.897 794.026 229.82 796.801 232.555C799.576 235.29 796.428 271.196 788.825 313.707Z" fill="#261D2E"/>
<path d="M477.769 541.551L414.67 608.868L420.116 614.314L488.028 550.668C484.404 547.866 480.977 544.82 477.769 541.551Z" fill="#5E2BFF"/>
<path d="M580.446 574.04L454.699 448.301L422.4 491.977L537.286 606.862L580.446 574.04Z" fill="#261D2E"/>
<path d="M706.731 326.098H670.619" stroke="#261D2E" stroke-width="3.17122" stroke-miterlimit="10"/>
<path d="M713.834 341.479H665.742" stroke="#261D2E" stroke-width="3.17122" stroke-miterlimit="10"/>
<path d="M709.419 356.851H672.387" stroke="#261D2E" stroke-width="3.17122" stroke-miterlimit="10"/>
<path d="M513.517 515.507L422.836 606.18" stroke="#261D2E" stroke-width="3.17122" stroke-linecap="round" stroke-linejoin="round"/>
<path d="M566.579 462.437L526.186 502.83" stroke="#261D2E" stroke-width="3.17122" stroke-linecap="round" stroke-linejoin="round"/>
<path d="M613.395 375.125L655.136 416.43" stroke="#261D2E" stroke-width="3.18707" stroke-linecap="round" stroke-linejoin="round"/>
<path d="M527.811 328.921C520.923 327.882 513.89 329.308 507.951 332.948C498.279 339.037 460.129 379.002 460.129 379.002" stroke="#261D2E" stroke-width="3.17122" stroke-linecap="round" stroke-linejoin="round"/>
<path d="M330.221 513.557L432.207 408.843" stroke="#261D2E" stroke-width="3.17122" stroke-linecap="round" stroke-linejoin="round"/>
<path d="M700.079 501.213C701.114 508.088 699.688 515.107 696.052 521.033C689.963 530.705 650.006 568.855 650.006 568.855" stroke="#261D2E" stroke-width="3.17122" stroke-linecap="round" stroke-linejoin="round"/>
<path d="M515.459 698.803L620.173 596.809" stroke="#261D2E" stroke-width="3.17122" stroke-linecap="round" stroke-linejoin="round"/>
<path d="M682.328 496.821C652.043 521.08 579.264 572.93 579.264 572.93" stroke="#261D2E" stroke-width="3.17122" stroke-linecap="round" stroke-linejoin="round"/>
<path d="M531.808 346.307C507.548 376.592 455.738 449.371 455.738 449.371" stroke="#261D2E" stroke-width="3.17122" stroke-linecap="round" stroke-linejoin="round"/>
<path d="M787.915 309.679C784.023 339.568 773.994 372.311 756.742 405.323" stroke="#261D2E" stroke-width="3.17122" stroke-linecap="round" stroke-linejoin="round"/>
<path d="M717.743 239.516C687.228 242.648 654.89 253.057 622.504 271.046" stroke="#261D2E" stroke-width="3.17122" stroke-linecap="round" stroke-linejoin="round"/>
</g>
<defs>
<clipPath id="clip0_433_1169">
<rect width="639" height="580.333" fill="white" transform="translate(180 210)"/>
</clipPath>
</defs>
</svg>
