<svg width="1000" height="1000" viewBox="0 0 1000 1000" fill="none" xmlns="http://www.w3.org/2000/svg">
<g clip-path="url(#clip0_433_1163)">
<path d="M649.6 379.746C544.888 308.947 304.329 120.466 178.36 230.136C52.3905 339.806 121.363 866.416 492.432 809.712C631.834 788.409 842.452 776.65 871.986 711.328C921.083 602.671 714.978 423.934 649.6 379.746Z" fill="#E9E8E8"/>
<path d="M952.087 243.138L512.605 241.757L511.662 542.044L951.143 543.425L952.087 243.138Z" fill="white"/>
<path d="M512.174 389.178L512.514 276.235" stroke="#231F20" stroke-width="3.784" stroke-linecap="round" stroke-linejoin="round"/>
<path d="M952.007 276.302L951.184 543.357L767.906 542.79" stroke="#231F20" stroke-width="3.784" stroke-linecap="round" stroke-linejoin="round"/>
<path d="M510.141 241.422V261.695H949.633V241.422H510.141Z" fill="#5E2BFF" stroke="#231F20" stroke-width="3.784" stroke-linecap="round" stroke-linejoin="round"/>
<path d="M47.9154 540.545L487.396 541.925L488.34 241.638L48.8588 240.257L47.9154 540.545Z" fill="white"/>
<path d="M487.836 389.103L488.186 275.63" stroke="#231F20" stroke-width="3.784" stroke-linecap="round" stroke-linejoin="round"/>
<path d="M48.7022 274.286L47.8887 540.585L207.488 541.077" stroke="#231F20" stroke-width="3.784" stroke-linecap="round" stroke-linejoin="round"/>
<path d="M47.7461 240.003V260.276H487.229V240.003H47.7461Z" fill="#5E2BFF" stroke="#231F20" stroke-width="3.784" stroke-linecap="round" stroke-linejoin="round"/>
<path d="M755.102 400.244L225.439 398.58C222.127 398.569 219.433 401.246 219.423 404.558L218.298 762.665C218.287 765.977 220.964 768.671 224.276 768.681L753.939 770.345C757.251 770.356 759.945 767.679 759.956 764.367L761.081 406.26C761.091 402.948 758.414 400.254 755.102 400.244Z" fill="#5E2BFF"/>
<path d="M761.096 406.196V428.361L219.436 426.696L219.502 404.531C219.504 403.744 219.662 402.964 219.966 402.237C220.269 401.511 220.713 400.851 221.272 400.296C221.83 399.741 222.493 399.301 223.222 399.002C223.95 398.703 224.731 398.55 225.518 398.553L755.184 400.18C756.763 400.202 758.269 400.846 759.376 401.973C760.483 403.099 761.101 404.617 761.096 406.196Z" fill="#261D2E"/>
<path d="M731.06 452.531L243.863 451L243.722 495.831L730.919 497.362L731.06 452.531Z" fill="#261D2E"/>
<path d="M243.559 564.16L655.806 565.428" stroke="#231F20" stroke-width="3.784" stroke-linecap="round" stroke-linejoin="round"/>
<path d="M243.492 586.391L655.74 587.659" stroke="#231F20" stroke-width="3.784" stroke-linecap="round" stroke-linejoin="round"/>
<path d="M243.428 608.622L590.222 609.681" stroke="#231F20" stroke-width="3.784" stroke-linecap="round" stroke-linejoin="round"/>
<path d="M243.143 700.005L655.39 701.263" stroke="#231F20" stroke-width="3.784" stroke-linecap="round" stroke-linejoin="round"/>
<path d="M243.076 722.236L589.87 723.296" stroke="#231F20" stroke-width="3.784" stroke-linecap="round" stroke-linejoin="round"/>
<path d="M243.35 630.843L516.053 631.685" stroke="#231F20" stroke-width="3.784" stroke-linecap="round" stroke-linejoin="round"/>
<path d="M417.207 520.669L241.621 520.117L241.557 540.664L417.143 541.216L417.207 520.669Z" fill="#261D2E"/>
<path d="M380.633 660.098L241.184 659.66L241.119 680.207L380.568 680.645L380.633 660.098Z" fill="#261D2E"/>
<path d="M473.076 281.337L62.6367 280.048L62.4979 324.245L472.937 325.534L473.076 281.337Z" stroke="#231F20" stroke-width="3.784" stroke-linecap="round" stroke-linejoin="round"/>
<path d="M938.642 282.799L528.203 281.51L528.071 323.692L938.51 324.981L938.642 282.799Z" stroke="#231F20" stroke-width="3.784" stroke-linecap="round" stroke-linejoin="round"/>
<path d="M62.332 385.962L470.323 387.21" stroke="#231F20" stroke-width="3.784" stroke-linecap="round" stroke-linejoin="round"/>
<path d="M62.4199 357.553L470.411 358.802" stroke="#231F20" stroke-width="3.784" stroke-linecap="round" stroke-linejoin="round"/>
<path d="M532.93 359.001L940.921 360.249" stroke="#231F20" stroke-width="3.784" stroke-linecap="round" stroke-linejoin="round"/>
<path d="M62.2578 410.614L200.118 411.04" stroke="#231F20" stroke-width="3.784" stroke-linecap="round" stroke-linejoin="round"/>
<path d="M59.9864 254.297C62.2225 254.297 64.0353 252.484 64.0353 250.248C64.0353 248.012 62.2225 246.199 59.9864 246.199C57.7502 246.199 55.9375 248.012 55.9375 250.248C55.9375 252.484 57.7502 254.297 59.9864 254.297Z" fill="#261D2E"/>
<path d="M524.672 255.716C526.908 255.716 528.721 253.903 528.721 251.667C528.721 249.431 526.908 247.618 524.672 247.618C522.436 247.618 520.623 249.431 520.623 251.667C520.623 253.903 522.436 255.716 524.672 255.716Z" fill="#261D2E"/>
<path d="M235.035 417.312C237.851 417.312 240.133 415.029 240.133 412.213C240.133 409.397 237.851 407.114 235.035 407.114C232.218 407.114 229.936 409.397 229.936 412.213C229.936 415.029 232.218 417.312 235.035 417.312Z" fill="#5E2BFF"/>
</g>
<defs>
<clipPath id="clip0_433_1163">
<rect width="946" height="680.174" fill="white" transform="translate(27 160)"/>
</clipPath>
</defs>
</svg>
