<svg width="1000" height="1000" viewBox="0 0 1000 1000" fill="none" xmlns="http://www.w3.org/2000/svg">
<g clip-path="url(#clip0_433_1165)">
<path d="M340.063 405.884C437.627 339.919 661.782 164.304 779.126 266.487C896.47 368.671 832.24 859.332 486.493 806.5C356.607 786.65 160.367 775.694 132.849 714.832C87.1118 613.592 279.147 447.056 340.063 405.884Z" fill="#E9E8E8"/>
<path d="M520.63 696.031C646.54 696.031 748.61 593.961 748.61 468.051C748.61 342.141 646.54 240.071 520.63 240.071C394.72 240.071 292.65 342.141 292.65 468.051C292.65 593.961 394.72 696.031 520.63 696.031Z" fill="#5E2BFF"/>
<path d="M520.631 632.894C482.5 632.886 445.551 619.657 416.08 595.461C386.608 571.265 366.438 537.6 359.004 500.2C351.571 462.8 357.335 423.98 375.313 390.353C393.292 356.726 422.374 330.373 457.604 315.784C492.834 301.194 532.032 299.271 568.521 310.342C605.01 321.412 636.532 344.791 657.717 376.497C678.901 408.202 688.437 446.271 684.701 484.219C680.965 522.167 664.187 557.645 637.226 584.61C621.95 599.969 603.779 612.145 583.766 620.433C563.752 628.721 542.293 632.957 520.631 632.894Z" stroke="#261D2E" stroke-width="3.52569" stroke-linecap="round" stroke-linejoin="round"/>
<path d="M520.631 569.767C497.098 569.767 474.293 561.607 456.102 546.679C437.912 531.75 425.46 510.975 420.869 487.895C416.278 464.814 419.832 440.856 430.925 420.102C442.018 399.348 459.964 383.083 481.705 374.077C503.446 365.072 527.638 363.883 550.157 370.714C572.676 377.545 592.13 391.973 605.204 411.54C618.278 431.107 624.163 454.601 621.857 478.02C619.55 501.44 609.195 523.335 592.555 539.975C583.131 549.448 571.921 556.959 559.576 562.073C547.23 567.187 533.993 569.802 520.631 569.767Z" stroke="#261D2E" stroke-width="3.52569" stroke-linecap="round" stroke-linejoin="round"/>
<path d="M520.632 506.639C511.708 506.629 503.064 503.526 496.171 497.858C489.279 492.19 484.564 484.308 482.831 475.554C481.097 466.8 482.452 457.716 486.664 449.849C490.876 441.982 497.686 435.818 505.932 432.408C514.178 428.998 523.352 428.552 531.89 431.146C540.429 433.74 547.804 439.214 552.76 446.635C557.715 454.056 559.945 462.966 559.069 471.846C558.193 480.727 554.266 489.03 547.956 495.34C544.376 498.938 540.117 501.789 535.427 503.729C530.736 505.668 525.707 506.658 520.632 506.639Z" stroke="#261D2E" stroke-width="3.52569" stroke-linecap="round" stroke-linejoin="round"/>
<path d="M304.117 338.526L213.938 304.926L211.973 351.5L302.16 385.1L304.117 338.526Z" fill="#5E2BFF"/>
<path d="M264.444 425.108L174.266 391.499L209.337 357.265L299.516 390.864L264.444 425.108Z" fill="#5E2BFF"/>
<path d="M493.333 464.745L173.932 348.398C169.86 346.881 167.903 342.704 169.569 339.081C171.235 335.458 175.88 333.739 179.952 335.255L499.159 449.752C500.17 450.085 501.103 450.617 501.903 451.317C502.704 452.017 503.355 452.872 503.819 453.829C504.283 454.786 504.55 455.827 504.603 456.889C504.657 457.951 504.496 459.013 504.131 460.012C503.284 462.037 501.69 463.659 499.68 464.54C497.669 465.422 495.396 465.495 493.333 464.745Z" fill="#261D2E"/>
<path d="M444.978 467.531L474.162 452.388C475.011 451.971 475.673 451.251 476.017 450.37C476.362 449.489 476.363 448.511 476.022 447.628L464.149 417.589C462.633 413.755 467.586 410.6 470.733 413.394L528.713 464.86C529.294 465.38 529.702 466.066 529.884 466.824C530.065 467.583 530.011 468.378 529.729 469.105C529.446 469.832 528.949 470.456 528.303 470.892C527.657 471.329 526.893 471.559 526.113 471.55L447.076 474.794C446.186 474.872 445.297 474.639 444.561 474.134C443.824 473.629 443.286 472.884 443.038 472.026C442.79 471.168 442.848 470.25 443.202 469.43C443.556 468.611 444.184 467.939 444.978 467.531Z" fill="#5E2BFF"/>
<path d="M492.672 470.51L454.947 472.062C454.2 472.127 453.453 471.932 452.834 471.508C452.215 471.084 451.763 470.458 451.555 469.737C451.347 469.017 451.395 468.246 451.692 467.558C451.99 466.869 452.517 466.305 453.184 465.962L466.405 459.131" stroke="#261D2E" stroke-width="3.52569" stroke-linecap="round" stroke-linejoin="round"/>
<path d="M474.612 437.589L469.271 424.059C468.001 420.851 472.153 418.206 474.797 420.533L504.034 446.482" stroke="#261D2E" stroke-width="3.52569" stroke-linecap="round" stroke-linejoin="round"/>
<path d="M520.63 497.297C513.87 497.297 507.319 494.953 502.094 490.665C496.868 486.377 493.291 480.409 491.972 473.779C490.653 467.149 491.673 460.266 494.86 454.305C498.046 448.343 503.201 443.67 509.447 441.083C515.692 438.496 522.641 438.154 529.11 440.116C535.579 442.078 541.168 446.223 544.924 451.844C548.68 457.464 550.37 464.213 549.708 470.941C549.046 477.668 546.071 483.958 541.291 488.738C538.584 491.46 535.364 493.617 531.818 495.086C528.271 496.555 524.469 497.307 520.63 497.297Z" fill="#5E2BFF"/>
<path d="M226.086 317.089L225.486 343.841" stroke="#261D2E" stroke-width="3.52569" stroke-linecap="round" stroke-linejoin="round"/>
<path d="M240.928 322.696L240.32 349.438" stroke="#261D2E" stroke-width="3.52569" stroke-linecap="round" stroke-linejoin="round"/>
<path d="M255.761 328.292L255.162 355.035" stroke="#261D2E" stroke-width="3.52569" stroke-linecap="round" stroke-linejoin="round"/>
<path d="M270.608 333.889L270 360.632" stroke="#261D2E" stroke-width="3.52569" stroke-linecap="round" stroke-linejoin="round"/>
<path d="M285.441 339.486L284.842 366.238" stroke="#261D2E" stroke-width="3.52569" stroke-linecap="round" stroke-linejoin="round"/>
<path d="M196.082 390.045L213.349 369.614" stroke="#261D2E" stroke-width="3.52569" stroke-linecap="round" stroke-linejoin="round"/>
<path d="M210.898 395.686L228.166 375.255" stroke="#261D2E" stroke-width="3.52569" stroke-linecap="round" stroke-linejoin="round"/>
<path d="M225.725 401.318L242.992 380.887" stroke="#261D2E" stroke-width="3.52569" stroke-linecap="round" stroke-linejoin="round"/>
<path d="M240.551 406.959L257.818 386.519" stroke="#261D2E" stroke-width="3.52569" stroke-linecap="round" stroke-linejoin="round"/>
<path d="M255.377 412.592L272.644 392.16" stroke="#261D2E" stroke-width="3.52569" stroke-linecap="round" stroke-linejoin="round"/>
</g>
<defs>
<clipPath id="clip0_433_1165">
<rect width="747.447" height="669" fill="white" transform="translate(126 165)"/>
</clipPath>
</defs>
</svg>
