<svg width="1000" height="1000" viewBox="0 0 1000 1000" fill="none" xmlns="http://www.w3.org/2000/svg">
<path d="M167.449 418.9H214.469" stroke="#251D2E" stroke-width="4" stroke-linecap="round" stroke-linejoin="round"/>
<path d="M723.288 364.589C612.598 289.749 358.308 90.5091 225.148 206.439C91.9882 322.369 164.898 879.039 557.148 819.099C704.508 796.579 927.148 784.149 958.368 715.099C1010.27 600.239 792.398 411.299 723.288 364.589Z" fill="#E9E8E8"/>
<path d="M787.61 378.49V511.32H697.25C689.758 511.32 682.572 508.344 677.274 503.046C671.976 497.748 669 490.562 669 483.07V363H772.12V378.49H787.61Z" fill="#5E2BFF"/>
<path d="M770.76 423.19H685.65V425.13H770.76V423.19Z" fill="#251D2E"/>
<path d="M770.76 430.45H685.65V432.39H770.76V430.45Z" fill="#251D2E"/>
<path d="M770.76 437.71H685.65V439.65H770.76V437.71Z" fill="#251D2E"/>
<path d="M754.03 444.97H685.65V446.91H754.03V444.97Z" fill="#251D2E"/>
<path d="M770.76 383.99H685.65V385.93H770.76V383.99Z" fill="#251D2E"/>
<path d="M770.76 391.25H685.65V393.19H770.76V391.25Z" fill="#251D2E"/>
<path d="M770.76 398.51H685.65V400.45H770.76V398.51Z" fill="#251D2E"/>
<path d="M754.03 405.77H685.65V407.71H754.03V405.77Z" fill="#251D2E"/>
<path d="M770.76 459.26H685.65V461.2H770.76V459.26Z" fill="#251D2E"/>
<path d="M770.76 466.52H685.65V468.46H770.76V466.52Z" fill="#251D2E"/>
<path d="M770.76 473.78H685.65V475.72H770.76V473.78Z" fill="#251D2E"/>
<path d="M754.03 481.04H685.65V482.98H754.03V481.04Z" fill="#251D2E"/>
<path d="M787.621 378.49H772.121V363L787.621 378.49Z" fill="#251D2E"/>
<path d="M838.45 610.65V779.14H723.83C714.327 779.14 705.214 775.365 698.494 768.646C691.775 761.926 688 752.813 688 743.31V591H818.83V610.65H838.45Z" fill="#5E2BFF"/>
<path d="M795.841 609.04H769.211V613.97H795.841V609.04Z" fill="#251D2E"/>
<path d="M817.07 670.11H709.1V672.57H817.07V670.11Z" fill="#251D2E"/>
<path d="M817.07 679.32H709.1V681.78H817.07V679.32Z" fill="#251D2E"/>
<path d="M817.07 688.53H709.1V690.99H817.07V688.53Z" fill="#251D2E"/>
<path d="M795.84 697.74H709.1V700.2H795.84V697.74Z" fill="#251D2E"/>
<path d="M817.061 622.22H769.211V624.68H817.061V622.22Z" fill="#251D2E"/>
<path d="M817.061 631.43H769.211V633.89H817.061V631.43Z" fill="#251D2E"/>
<path d="M817.061 640.64H769.211V643.1H817.061V640.64Z" fill="#251D2E"/>
<path d="M807.661 649.85H769.211V652.31H807.661V649.85Z" fill="#251D2E"/>
<path d="M817.07 715.87H709.1V718.33H817.07V715.87Z" fill="#251D2E"/>
<path d="M817.07 725.08H709.1V727.54H817.07V725.08Z" fill="#251D2E"/>
<path d="M817.07 734.29H709.1V736.75H817.07V734.29Z" fill="#251D2E"/>
<path d="M795.84 743.5H709.1V745.96H795.84V743.5Z" fill="#251D2E"/>
<path d="M760.089 609.04H709.359V659.77H760.089V609.04Z" fill="white"/>
<path d="M722.9 629.09C724.678 629.09 726.12 627.649 726.12 625.87C726.12 624.092 724.678 622.65 722.9 622.65C721.121 622.65 719.68 624.092 719.68 625.87C719.68 627.649 721.121 629.09 722.9 629.09Z" fill="#251D2E"/>
<path d="M739.02 626.95L733.61 635.55L728.27 631.33L719.67 644.14H749.77L739.02 626.95Z" fill="#251D2E"/>
<path d="M838.449 610.65H818.789V591L838.449 610.65Z" fill="#251D2E"/>
<path d="M652.55 371.41V687.64H437.41C419.572 687.64 402.464 680.554 389.85 667.94C377.237 655.326 370.15 638.218 370.15 620.38V334.52H615.66V371.41H652.55Z" fill="#5E2BFF"/>
<path d="M602.52 485.84H405.89C403.658 485.84 401.85 487.649 401.85 489.88V556.33C401.85 558.561 403.658 560.37 405.89 560.37H602.52C604.751 560.37 606.56 558.561 606.56 556.33V489.88C606.56 487.649 604.751 485.84 602.52 485.84Z" fill="white"/>
<path d="M610.611 382.63H412.091C410.815 382.63 409.781 383.664 409.781 384.94V389.57C409.781 390.846 410.815 391.88 412.091 391.88H610.611C611.887 391.88 612.921 390.846 612.921 389.57V384.94C612.921 383.664 611.887 382.63 610.611 382.63Z" fill="#251D2E"/>
<path d="M610.111 417H412.091C410.815 417 409.781 418.034 409.781 419.31V419.32C409.781 420.596 410.815 421.63 412.091 421.63H610.111C611.387 421.63 612.421 420.596 612.421 419.32V419.31C612.421 418.034 611.387 417 610.111 417Z" fill="#251D2E"/>
<path d="M610.111 434.28H412.091C410.815 434.28 409.781 435.314 409.781 436.59V436.6C409.781 437.876 410.815 438.91 412.091 438.91H610.111C611.387 438.91 612.421 437.876 612.421 436.6V436.59C612.421 435.314 611.387 434.28 610.111 434.28Z" fill="#251D2E"/>
<path d="M610.111 451.57H412.091C410.815 451.57 409.781 452.604 409.781 453.88V453.89C409.781 455.166 410.815 456.2 412.091 456.2H610.111C611.387 456.2 612.421 455.166 612.421 453.89V453.88C612.421 452.604 611.387 451.57 610.111 451.57Z" fill="#251D2E"/>
<path d="M570.271 468.85H412.091C410.815 468.85 409.781 469.884 409.781 471.16V471.17C409.781 472.446 410.815 473.48 412.091 473.48H570.271C571.547 473.48 572.581 472.446 572.581 471.17V471.16C572.581 469.884 571.547 468.85 570.271 468.85Z" fill="#251D2E"/>
<path d="M591.181 498.58H433.001C431.726 498.58 430.691 499.614 430.691 500.89V500.9C430.691 502.176 431.726 503.21 433.001 503.21H591.181C592.457 503.21 593.491 502.176 593.491 500.9V500.89C593.491 499.614 592.457 498.58 591.181 498.58Z" fill="#251D2E"/>
<path d="M610.111 573.95H412.091C410.815 573.95 409.781 574.984 409.781 576.26V576.27C409.781 577.546 410.815 578.58 412.091 578.58H610.111C611.387 578.58 612.421 577.546 612.421 576.27V576.26C612.421 574.984 611.387 573.95 610.111 573.95Z" fill="#251D2E"/>
<path d="M610.111 591.24H412.091C410.815 591.24 409.781 592.274 409.781 593.55V593.56C409.781 594.836 410.815 595.87 412.091 595.87H610.111C611.387 595.87 612.421 594.836 612.421 593.56V593.55C612.421 592.274 611.387 591.24 610.111 591.24Z" fill="#251D2E"/>
<path d="M610.111 608.52H412.091C410.815 608.52 409.781 609.554 409.781 610.83V610.84C409.781 612.116 410.815 613.15 412.091 613.15H610.111C611.387 613.15 612.421 612.116 612.421 610.84V610.83C612.421 609.554 611.387 608.52 610.111 608.52Z" fill="#251D2E"/>
<path d="M570.271 625.81H412.091C410.815 625.81 409.781 626.844 409.781 628.12V628.13C409.781 629.406 410.815 630.44 412.091 630.44H570.271C571.547 630.44 572.581 629.406 572.581 628.13V628.12C572.581 626.844 571.547 625.81 570.271 625.81Z" fill="#251D2E"/>
<path d="M414.5 504.29C416.377 504.29 417.9 502.768 417.9 500.89C417.9 499.012 416.377 497.49 414.5 497.49C412.622 497.49 411.1 499.012 411.1 500.89C411.1 502.768 412.622 504.29 414.5 504.29Z" fill="#251D2E"/>
<path d="M591.181 519.91H433.001C431.726 519.91 430.691 520.944 430.691 522.22V522.23C430.691 523.506 431.726 524.54 433.001 524.54H591.181C592.457 524.54 593.491 523.506 593.491 522.23V522.22C593.491 520.944 592.457 519.91 591.181 519.91Z" fill="#251D2E"/>
<path d="M414.5 525.62C416.377 525.62 417.9 524.098 417.9 522.22C417.9 520.342 416.377 518.82 414.5 518.82C412.622 518.82 411.1 520.342 411.1 522.22C411.1 524.098 412.622 525.62 414.5 525.62Z" fill="#251D2E"/>
<path d="M591.181 541.24H433.001C431.726 541.24 430.691 542.274 430.691 543.55V543.56C430.691 544.836 431.726 545.87 433.001 545.87H591.181C592.457 545.87 593.491 544.836 593.491 543.56V543.55C593.491 542.274 592.457 541.24 591.181 541.24Z" fill="#251D2E"/>
<path d="M414.5 546.95C416.377 546.95 417.9 545.428 417.9 543.55C417.9 541.672 416.377 540.15 414.5 540.15C412.622 540.15 411.1 541.672 411.1 543.55C411.1 545.428 412.622 546.95 414.5 546.95Z" fill="#251D2E"/>
<path d="M652.54 371.41H615.66V334.52L652.54 371.41Z" fill="#251D2E"/>
<path d="M618.171 762.45C624.124 762.45 628.951 757.624 628.951 751.67C628.951 745.716 624.124 740.89 618.171 740.89C612.217 740.89 607.391 745.716 607.391 751.67C607.391 757.624 612.217 762.45 618.171 762.45Z" fill="#5E2BFF"/>
<path d="M618.169 764.3C625.144 764.3 630.799 758.645 630.799 751.67C630.799 744.695 625.144 739.04 618.169 739.04C611.194 739.04 605.539 744.695 605.539 751.67C605.539 758.645 611.194 764.3 618.169 764.3Z" stroke="#251D2E" stroke-width="1.79" stroke-linecap="round"/>
<path d="M622.75 747.08L616.16 753.67L613.79 751.29C613.674 751.174 613.536 751.081 613.384 751.018C613.232 750.955 613.07 750.923 612.905 750.923C612.741 750.923 612.578 750.955 612.426 751.018C612.274 751.081 612.136 751.174 612.02 751.29L611.75 751.56C611.634 751.676 611.541 751.814 611.478 751.966C611.415 752.118 611.383 752.281 611.383 752.445C611.383 752.609 611.415 752.772 611.478 752.924C611.541 753.076 611.634 753.214 611.75 753.33L615.01 756.58C615.125 756.696 615.262 756.788 615.413 756.851C615.564 756.914 615.726 756.946 615.89 756.946C616.054 756.946 616.216 756.914 616.367 756.851C616.518 756.788 616.655 756.696 616.77 756.58L624.51 748.84C624.626 748.725 624.718 748.588 624.781 748.437C624.844 748.286 624.876 748.124 624.876 747.96C624.876 747.796 624.844 747.634 624.781 747.483C624.718 747.332 624.626 747.195 624.51 747.08C624.395 746.964 624.258 746.872 624.107 746.809C623.956 746.746 623.794 746.714 623.63 746.714C623.466 746.714 623.304 746.746 623.153 746.809C623.002 746.872 622.865 746.964 622.75 747.08Z" fill="white"/>
<path d="M510.37 739.38H405.98V746.5H510.37V739.38Z" fill="#5E2BFF"/>
<path d="M592.76 756.55H405.98V763.67H592.76V756.55Z" fill="#5E2BFF"/>
<path d="M301.211 724.73L365.691 724.74" stroke="#251D2E" stroke-width="1.79" stroke-linecap="round" stroke-linejoin="round"/>
<path d="M301 735.62L321.71 735.63" stroke="#251D2E" stroke-width="1.79" stroke-linecap="round" stroke-linejoin="round"/>
<path d="M301 731H328.14" stroke="#251D2E" stroke-width="1.79" stroke-linecap="round" stroke-linejoin="round"/>
<path d="M334.871 310.74V697.48" stroke="#251D2E" stroke-width="4" stroke-linecap="round" stroke-linejoin="round" stroke-dasharray="10.71 18.75"/>
<mask id="mask0_433_1168" style="mask-type:luminance" maskUnits="userSpaceOnUse" x="289" y="219" width="92" height="92">
<path d="M334.871 310.74C360.127 310.74 380.601 290.266 380.601 265.01C380.601 239.754 360.127 219.28 334.871 219.28C309.615 219.28 289.141 239.754 289.141 265.01C289.141 290.266 309.615 310.74 334.871 310.74Z" fill="white"/>
</mask>
<g mask="url(#mask0_433_1168)">
<path d="M334.871 310.74C360.127 310.74 380.601 290.266 380.601 265.01C380.601 239.754 360.127 219.28 334.871 219.28C309.615 219.28 289.141 239.754 289.141 265.01C289.141 290.266 309.615 310.74 334.871 310.74Z" fill="white"/>
<path d="M353.321 254.16C354.921 249.307 354.835 245.44 353.061 242.56C350.973 239.386 348.05 236.848 344.613 235.227C341.176 233.606 337.359 232.963 333.581 233.37C323.451 234.24 315.161 242.89 312.581 252.69C310.861 259.237 311.171 266.34 313.511 274C315.181 276.53 317.001 277.85 318.961 277.94C321.911 278.09 327.961 276.87 330.031 274.83C331.438 273.457 339.201 266.567 353.321 254.16Z" fill="#251D2E"/>
<path d="M352 254.09L354.35 261.51L353.05 269.94L348.5 275.88L343.73 278.51L343.02 291.41L353.69 291.89L352.32 307.33C345.98 310.84 339.27 310.65 332.32 307.7L312 294L328.91 291.47L330.73 277.82L326.62 271.82L324.86 266.23L321.16 265.64L320.32 259.74L323.11 256.91L328.11 256.1L331.51 250.88L331 246.4L343.94 253.69L352 254.09Z" fill="white"/>
<path d="M352.001 254.09C354.309 258.525 354.862 263.666 353.551 268.49C352.251 273.417 348.811 276.75 343.231 278.49L343.051 291.42L350.731 291.66" stroke="#251D2E" stroke-width="1.79" stroke-linecap="round" stroke-linejoin="round"/>
<path d="M351.809 253.56C350.549 254.36 348.119 254.24 344.539 253.2C340.959 252.16 336.449 249.89 330.999 246.4C331.618 248.408 331.501 250.57 330.669 252.5C329.961 254.367 328.61 255.92 326.859 256.88C323.819 255.94 321.819 256.65 320.859 259.01C319.409 262.55 320.479 265.57 321.649 266.14C322.658 266.529 323.766 266.585 324.809 266.3C324.683 268.14 325.426 270.3 327.039 272.78C328.669 275.26 329.889 276.63 330.729 276.88L329.469 291.62L319.699 292.75" stroke="#251D2E" stroke-width="1.79" stroke-linecap="round" stroke-linejoin="round"/>
<path d="M344.791 277.9C343.673 278.469 342.452 278.809 341.201 278.9C339.359 279.059 337.503 278.89 335.721 278.4" stroke="#251D2E" stroke-width="1.79" stroke-linecap="round" stroke-linejoin="round"/>
<path d="M319.611 279.5C318.66 279.729 317.664 279.681 316.741 279.36C315.246 278.743 313.966 277.7 313.061 276.36" stroke="#251D2E" stroke-width="1.79" stroke-linecap="round" stroke-linejoin="round"/>
<path d="M319.181 281.36C318.451 281.69 317.181 281.63 315.441 281.18C314.527 280.919 313.682 280.459 312.966 279.833C312.25 279.207 311.682 278.431 311.301 277.56C309.828 277.493 308.298 278.847 306.711 281.62C304.321 285.78 305.401 291.24 303.491 293.98C301.911 296.074 299.876 297.784 297.541 298.98C306.061 300.453 311.928 298.84 315.141 294.14C318.354 289.44 319.701 285.18 319.181 281.36Z" fill="#251D2E"/>
<path d="M364.851 329.26C360.771 329.2 356.684 329.113 352.591 329C342.941 328.76 333.291 328.44 323.641 328.24C316.001 328.09 308.361 328.12 300.721 328.14C298.471 322.72 295.841 313.56 298.781 304.82C300.611 298.67 306.641 293.82 314.691 293.05C322.811 292.58 329.391 308.14 342.441 307.92C355.491 307.7 349.681 292.56 352.811 291.26C354.061 290.74 357.901 292.84 363.081 296.95C370.931 303.18 369.241 307.08 368.261 318.32L364.851 329.26Z" fill="#5E2BFF"/>
</g>
<path d="M483.68 256.91H400.09C399.559 256.91 399.051 256.699 398.676 256.324C398.301 255.949 398.09 255.44 398.09 254.91C398.09 254.379 398.301 253.871 398.676 253.496C399.051 253.121 399.559 252.91 400.09 252.91H483.68C484.21 252.91 484.719 253.121 485.094 253.496C485.469 253.871 485.68 254.379 485.68 254.91C485.68 255.44 485.469 255.949 485.094 256.324C484.719 256.699 484.21 256.91 483.68 256.91Z" fill="#251D2E"/>
<path d="M518.31 267.87H400.09" stroke="#251D2E" stroke-width="3.57" stroke-linecap="round" stroke-linejoin="round"/>
<path d="M500.79 278.92H400.09" stroke="#251D2E" stroke-width="3.57" stroke-linecap="round" stroke-linejoin="round"/>
<path d="M334.871 310.74C360.127 310.74 380.601 290.266 380.601 265.01C380.601 239.754 360.127 219.28 334.871 219.28C309.615 219.28 289.141 239.754 289.141 265.01C289.141 290.266 309.615 310.74 334.871 310.74Z" stroke="#251D2E" stroke-width="3.57" stroke-linecap="round" stroke-linejoin="round"/>
<path d="M552.901 278.4C558.855 278.4 563.681 273.574 563.681 267.62C563.681 261.666 558.855 256.84 552.901 256.84C546.947 256.84 542.121 261.666 542.121 267.62C542.121 273.574 546.947 278.4 552.901 278.4Z" fill="#5E2BFF"/>
<path d="M552.9 280.25C559.875 280.25 565.53 274.595 565.53 267.62C565.53 260.645 559.875 254.99 552.9 254.99C545.924 254.99 540.27 260.645 540.27 267.62C540.27 274.595 545.924 280.25 552.9 280.25Z" stroke="#251D2E" stroke-width="1.79" stroke-linecap="round"/>
<path d="M557.47 263L550.89 269.59L548.51 267.21C548.273 266.98 547.955 266.851 547.625 266.851C547.294 266.851 546.977 266.98 546.74 267.21L546.47 267.49C546.24 267.725 546.111 268.041 546.111 268.37C546.111 268.699 546.24 269.015 546.47 269.25L549.73 272.51C549.846 272.626 549.984 272.719 550.135 272.782C550.287 272.845 550.45 272.877 550.615 272.877C550.779 272.877 550.942 272.845 551.094 272.782C551.245 272.719 551.383 272.626 551.5 272.51L559.24 264.77C559.356 264.654 559.448 264.516 559.511 264.364C559.574 264.212 559.607 264.049 559.607 263.885C559.607 263.721 559.574 263.558 559.511 263.406C559.448 263.254 559.356 263.116 559.24 263C559.003 262.77 558.685 262.641 558.355 262.641C558.024 262.641 557.707 262.77 557.47 263Z" fill="white"/>
<path d="M199.28 331.31V505.17H81C71.187 505.17 61.7759 501.272 54.8371 494.333C47.8982 487.394 44 477.983 44 468.17V311H179V331.28L199.28 331.31Z" fill="#5E2BFF"/>
<path d="M199.28 331.31H179.01V311.03L199.28 331.31Z" fill="#251D2E"/>
<path d="M120.94 466.33C105.754 466.311 91.1956 460.271 80.4575 449.533C69.7195 438.795 63.6787 424.236 63.6602 409.05C63.7537 405.69 65.1544 402.498 67.5643 400.154C69.9743 397.811 73.2034 396.499 76.5652 396.499C79.9269 396.499 83.156 397.811 85.566 400.154C87.9759 402.498 89.3766 405.69 89.4702 409.05C89.4705 414.759 91.0236 420.359 93.963 425.253C96.9025 430.147 101.118 434.148 106.157 436.83C111.197 439.511 116.871 440.772 122.572 440.476C128.272 440.18 133.785 438.339 138.52 435.15C141.357 433.325 144.796 432.683 148.101 433.362C151.406 434.04 154.314 435.985 156.202 438.781C158.091 441.576 158.81 445 158.206 448.319C157.602 451.638 155.722 454.589 152.97 456.54C143.515 462.937 132.356 466.348 120.94 466.33Z" fill="#251D2E"/>
<path d="M145.798 458.75C143.035 458.75 140.345 457.864 138.123 456.222C135.901 454.58 134.265 452.268 133.454 449.626C132.644 446.985 132.703 444.153 133.621 441.547C134.54 438.941 136.271 436.699 138.558 435.15C142.08 432.774 145.084 429.71 147.391 426.143C149.697 422.576 151.258 418.578 151.979 414.392C152.7 410.206 152.567 405.917 151.587 401.783C150.608 397.65 148.802 393.757 146.278 390.34C144.261 387.592 143.412 384.158 143.916 380.786C144.42 377.414 146.236 374.378 148.968 372.34C151.713 370.314 155.148 369.457 158.522 369.955C161.897 370.453 164.937 372.267 166.978 375C171.576 381.216 174.868 388.298 176.657 395.82C178.445 403.342 178.693 411.148 177.385 418.768C176.077 426.388 173.24 433.664 169.046 440.159C164.851 446.654 159.386 452.233 152.978 456.56C150.855 457.986 148.356 458.748 145.798 458.75Z" fill="white"/>
<path d="M76.5702 422C73.1462 422 69.8625 420.64 67.4414 418.219C65.0203 415.798 63.6602 412.514 63.6602 409.09C63.6577 397.036 67.4579 385.288 74.5199 375.52C81.5819 365.751 91.5456 358.459 102.993 354.682C114.44 350.906 126.786 350.836 138.275 354.484C149.764 358.132 159.809 365.311 166.98 375C169.017 377.75 169.878 381.197 169.373 384.582C168.869 387.967 167.04 391.013 164.29 393.05C161.54 395.087 158.093 395.948 154.708 395.443C151.323 394.939 148.277 393.11 146.24 390.36C142.302 385.036 136.784 381.09 130.473 379.084C124.162 377.078 117.379 377.114 111.09 379.187C104.8 381.26 99.3248 385.264 95.4432 390.629C91.5615 395.995 89.4713 402.448 89.4702 409.07C89.4728 410.766 89.1411 412.446 88.4941 414.014C87.8472 415.582 86.8975 417.007 85.6995 418.208C84.5015 419.409 83.0786 420.362 81.5121 421.013C79.9457 421.663 78.2664 421.999 76.5702 422Z" fill="#5E2BFF"/>
<path d="M76.5702 422C73.1462 422 69.8625 420.64 67.4414 418.219C65.0203 415.798 63.6602 412.514 63.6602 409.09C63.6577 397.036 67.4579 385.288 74.5199 375.52C81.5819 365.751 91.5456 358.459 102.993 354.682C114.44 350.906 126.786 350.836 138.275 354.484C149.764 358.132 159.809 365.311 166.98 375C169.017 377.75 169.878 381.197 169.373 384.582C168.869 387.967 167.04 391.013 164.29 393.05C161.54 395.087 158.093 395.948 154.708 395.443C151.323 394.939 148.277 393.11 146.24 390.36C142.302 385.036 136.784 381.09 130.473 379.084C124.162 377.078 117.379 377.114 111.09 379.187C104.8 381.26 99.3248 385.264 95.4432 390.629C91.5615 395.995 89.4713 402.448 89.4702 409.07C89.4728 410.766 89.1411 412.446 88.4941 414.014C87.8472 415.582 86.8975 417.007 85.6995 418.208C84.5015 419.409 83.0786 420.362 81.5121 421.013C79.9457 421.663 78.2664 421.999 76.5702 422Z" stroke="#251D2E" stroke-width="4" stroke-linecap="round" stroke-linejoin="round" stroke-dasharray="6.83 6.83"/>
<path d="M317.98 398.79H214.29C212.523 398.79 211.09 400.223 211.09 401.99V436.34C211.09 438.107 212.523 439.54 214.29 439.54H317.98C319.747 439.54 321.18 438.107 321.18 436.34V401.99C321.18 400.223 319.747 398.79 317.98 398.79Z" fill="#5E2BFF"/>
<path d="M311.081 415H301.491C300.995 415 300.519 414.803 300.168 414.452C299.818 414.102 299.621 413.626 299.621 413.13C299.621 412.634 299.818 412.158 300.168 411.808C300.519 411.457 300.995 411.26 301.491 411.26H311.081C311.577 411.26 312.052 411.457 312.403 411.808C312.754 412.158 312.951 412.634 312.951 413.13C312.951 413.626 312.754 414.102 312.403 414.452C312.052 414.803 311.577 415 311.081 415ZM293.261 415H288.801C288.305 415 287.829 414.803 287.478 414.452C287.128 414.102 286.931 413.626 286.931 413.13C286.931 412.634 287.128 412.158 287.478 411.808C287.829 411.457 288.305 411.26 288.801 411.26H293.291C293.787 411.26 294.262 411.457 294.613 411.808C294.964 412.158 295.161 412.634 295.161 413.13C295.161 413.626 294.964 414.102 294.613 414.452C294.262 414.803 293.787 415 293.291 415H293.261ZM280.541 415H272.311C271.815 415 271.339 414.803 270.988 414.452C270.638 414.102 270.441 413.626 270.441 413.13C270.441 412.634 270.638 412.158 270.988 411.808C271.339 411.457 271.815 411.26 272.311 411.26H280.541C281.037 411.26 281.512 411.457 281.863 411.808C282.214 412.158 282.411 412.634 282.411 413.13C282.411 413.626 282.214 414.102 281.863 414.452C281.512 414.803 281.037 415 280.541 415ZM263.331 415H251.331C250.835 415 250.359 414.803 250.008 414.452C249.658 414.102 249.461 413.626 249.461 413.13C249.461 412.634 249.658 412.158 250.008 411.808C250.359 411.457 250.835 411.26 251.331 411.26H263.331C263.827 411.26 264.302 411.457 264.653 411.808C265.004 412.158 265.201 412.634 265.201 413.13C265.201 413.626 265.004 414.102 264.653 414.452C264.302 414.803 263.827 415 263.331 415ZM243.121 415H238.631C238.135 415 237.659 414.803 237.309 414.452C236.958 414.102 236.761 413.626 236.761 413.13C236.761 412.634 236.958 412.158 237.309 411.808C237.659 411.457 238.135 411.26 238.631 411.26H243.121C243.617 411.26 244.092 411.457 244.443 411.808C244.794 412.158 244.991 412.634 244.991 413.13C244.991 413.626 244.794 414.102 244.443 414.452C244.092 414.803 243.617 415 243.121 415ZM230.401 415H222.171C221.675 415 221.199 414.803 220.848 414.452C220.498 414.102 220.301 413.626 220.301 413.13C220.301 412.634 220.498 412.158 220.848 411.808C221.199 411.457 221.675 411.26 222.171 411.26H230.401C230.897 411.26 231.372 411.457 231.723 411.808C232.074 412.158 232.271 412.634 232.271 413.13C232.271 413.626 232.074 414.102 231.723 414.452C231.372 414.803 230.897 415 230.401 415Z" fill="#251D2E"/>
<path d="M263.331 428.15H251.331C250.835 428.15 250.359 427.953 250.008 427.602C249.658 427.252 249.461 426.776 249.461 426.28C249.461 425.784 249.658 425.308 250.008 424.958C250.359 424.607 250.835 424.41 251.331 424.41H263.331C263.827 424.41 264.302 424.607 264.653 424.958C265.004 425.308 265.201 425.784 265.201 426.28C265.201 426.776 265.004 427.252 264.653 427.602C264.302 427.953 263.827 428.15 263.331 428.15ZM243.121 428.15H238.631C238.135 428.15 237.659 427.953 237.309 427.602C236.958 427.252 236.761 426.776 236.761 426.28C236.761 425.784 236.958 425.308 237.309 424.958C237.659 424.607 238.135 424.41 238.631 424.41H243.121C243.617 424.41 244.092 424.607 244.443 424.958C244.794 425.308 244.991 425.784 244.991 426.28C244.991 426.776 244.794 427.252 244.443 427.602C244.092 427.953 243.617 428.15 243.121 428.15ZM230.401 428.15H222.171C221.675 428.15 221.199 427.953 220.848 427.602C220.498 427.252 220.301 426.776 220.301 426.28C220.301 425.784 220.498 425.308 220.848 424.958C221.199 424.607 221.675 424.41 222.171 424.41H230.401C230.897 424.41 231.372 424.607 231.723 424.958C232.074 425.308 232.271 425.784 232.271 426.28C232.271 426.776 232.074 427.252 231.723 427.602C231.372 427.953 230.897 428.15 230.401 428.15Z" fill="#251D2E"/>
<path d="M190.999 484H254.949V575.67" stroke="#251D2E" stroke-width="4" stroke-linecap="round" stroke-linejoin="round"/>
<path d="M316.29 576H213.8C211.701 576 210 577.701 210 579.8V629.7C210 631.799 211.701 633.5 213.8 633.5H316.29C318.389 633.5 320.09 631.799 320.09 629.7V579.8C320.09 577.701 318.389 576 316.29 576Z" fill="#5E2BFF"/>
<path d="M309.989 593.18H300.399C299.903 593.18 299.427 592.983 299.076 592.632C298.726 592.282 298.529 591.806 298.529 591.31C298.529 590.814 298.726 590.338 299.076 589.988C299.427 589.637 299.903 589.44 300.399 589.44H309.989C310.485 589.44 310.96 589.637 311.311 589.988C311.662 590.338 311.859 590.814 311.859 591.31C311.859 591.806 311.662 592.282 311.311 592.632C310.96 592.983 310.485 593.18 309.989 593.18ZM292.169 593.18H287.679C287.183 593.18 286.707 592.983 286.356 592.632C286.006 592.282 285.809 591.806 285.809 591.31C285.809 590.814 286.006 590.338 286.356 589.988C286.707 589.637 287.183 589.44 287.679 589.44H292.169C292.665 589.44 293.14 589.637 293.491 589.988C293.842 590.338 294.039 590.814 294.039 591.31C294.039 591.806 293.842 592.282 293.491 592.632C293.14 592.983 292.665 593.18 292.169 593.18ZM279.449 593.18H271.219C270.723 593.18 270.247 592.983 269.896 592.632C269.546 592.282 269.349 591.806 269.349 591.31C269.349 590.814 269.546 590.338 269.896 589.988C270.247 589.637 270.723 589.44 271.219 589.44H279.449C279.945 589.44 280.42 589.637 280.771 589.988C281.122 590.338 281.319 590.814 281.319 591.31C281.319 591.806 281.122 592.282 280.771 592.632C280.42 592.983 279.945 593.18 279.449 593.18ZM262.239 593.18H250.239C249.743 593.18 249.267 592.983 248.916 592.632C248.566 592.282 248.369 591.806 248.369 591.31C248.369 590.814 248.566 590.338 248.916 589.988C249.267 589.637 249.743 589.44 250.239 589.44H262.239C262.735 589.44 263.21 589.637 263.561 589.988C263.912 590.338 264.109 590.814 264.109 591.31C264.109 591.806 263.912 592.282 263.561 592.632C263.21 592.983 262.735 593.18 262.239 593.18ZM242.039 593.18H237.549C237.053 593.18 236.577 592.983 236.226 592.632C235.876 592.282 235.679 591.806 235.679 591.31C235.679 590.814 235.876 590.338 236.226 589.988C236.577 589.637 237.053 589.44 237.549 589.44H242.039C242.535 589.44 243.01 589.637 243.361 589.988C243.712 590.338 243.909 590.814 243.909 591.31C243.909 591.806 243.712 592.282 243.361 592.632C243.01 592.983 242.535 593.18 242.039 593.18ZM229.319 593.18H221.089C220.593 593.18 220.117 592.983 219.766 592.632C219.416 592.282 219.219 591.806 219.219 591.31C219.219 590.814 219.416 590.338 219.766 589.988C220.117 589.637 220.593 589.44 221.089 589.44H229.319C229.815 589.44 230.29 589.637 230.641 589.988C230.992 590.338 231.189 590.814 231.189 591.31C231.189 591.806 230.992 592.282 230.641 592.632C230.29 592.983 229.815 593.18 229.319 593.18Z" fill="#251D2E"/>
<path d="M309.989 606.32H300.399C299.903 606.32 299.427 606.123 299.076 605.772C298.726 605.422 298.529 604.946 298.529 604.45C298.529 603.954 298.726 603.479 299.076 603.128C299.427 602.777 299.903 602.58 300.399 602.58H309.989C310.485 602.58 310.96 602.777 311.311 603.128C311.662 603.479 311.859 603.954 311.859 604.45C311.859 604.946 311.662 605.422 311.311 605.772C310.96 606.123 310.485 606.32 309.989 606.32ZM292.169 606.32H287.679C287.183 606.32 286.707 606.123 286.356 605.772C286.006 605.422 285.809 604.946 285.809 604.45C285.809 603.954 286.006 603.479 286.356 603.128C286.707 602.777 287.183 602.58 287.679 602.58H292.169C292.665 602.58 293.14 602.777 293.491 603.128C293.842 603.479 294.039 603.954 294.039 604.45C294.039 604.946 293.842 605.422 293.491 605.772C293.14 606.123 292.665 606.32 292.169 606.32ZM279.449 606.32H271.219C270.723 606.32 270.247 606.123 269.896 605.772C269.546 605.422 269.349 604.946 269.349 604.45C269.349 603.954 269.546 603.479 269.896 603.128C270.247 602.777 270.723 602.58 271.219 602.58H279.449C279.945 602.58 280.42 602.777 280.771 603.128C281.122 603.479 281.319 603.954 281.319 604.45C281.319 604.946 281.122 605.422 280.771 605.772C280.42 606.123 279.945 606.32 279.449 606.32ZM262.239 606.32H250.239C249.743 606.32 249.267 606.123 248.916 605.772C248.566 605.422 248.369 604.946 248.369 604.45C248.369 603.954 248.566 603.479 248.916 603.128C249.267 602.777 249.743 602.58 250.239 602.58H262.239C262.735 602.58 263.21 602.777 263.561 603.128C263.912 603.479 264.109 603.954 264.109 604.45C264.109 604.946 263.912 605.422 263.561 605.772C263.21 606.123 262.735 606.32 262.239 606.32ZM242.039 606.32H237.549C237.053 606.32 236.577 606.123 236.226 605.772C235.876 605.422 235.679 604.946 235.679 604.45C235.679 603.954 235.876 603.479 236.226 603.128C236.577 602.777 237.053 602.58 237.549 602.58H242.039C242.535 602.58 243.01 602.777 243.361 603.128C243.712 603.479 243.909 603.954 243.909 604.45C243.909 604.946 243.712 605.422 243.361 605.772C243.01 606.123 242.535 606.32 242.039 606.32ZM229.319 606.32H221.089C220.593 606.32 220.117 606.123 219.766 605.772C219.416 605.422 219.219 604.946 219.219 604.45C219.219 603.954 219.416 603.479 219.766 603.128C220.117 602.777 220.593 602.58 221.089 602.58H229.319C229.815 602.58 230.29 602.777 230.641 603.128C230.992 603.479 231.189 603.954 231.189 604.45C231.189 604.946 230.992 605.422 230.641 605.772C230.29 606.123 229.815 606.32 229.319 606.32Z" fill="#251D2E"/>
<path d="M262.239 619.47H250.239C249.743 619.47 249.267 619.273 248.916 618.922C248.566 618.572 248.369 618.096 248.369 617.6C248.369 617.104 248.566 616.628 248.916 616.278C249.267 615.927 249.743 615.73 250.239 615.73H262.239C262.735 615.73 263.21 615.927 263.561 616.278C263.912 616.628 264.109 617.104 264.109 617.6C264.109 618.096 263.912 618.572 263.561 618.922C263.21 619.273 262.735 619.47 262.239 619.47ZM242.039 619.47H237.549C237.053 619.47 236.577 619.273 236.226 618.922C235.876 618.572 235.679 618.096 235.679 617.6C235.679 617.104 235.876 616.628 236.226 616.278C236.577 615.927 237.053 615.73 237.549 615.73H242.039C242.535 615.73 243.01 615.927 243.361 616.278C243.712 616.628 243.909 617.104 243.909 617.6C243.909 618.096 243.712 618.572 243.361 618.922C243.01 619.273 242.535 619.47 242.039 619.47ZM229.319 619.47H221.089C220.593 619.47 220.117 619.273 219.766 618.922C219.416 618.572 219.219 618.096 219.219 617.6C219.219 617.104 219.416 616.628 219.766 616.278C220.117 615.927 220.593 615.73 221.089 615.73H229.319C229.815 615.73 230.29 615.927 230.641 616.278C230.992 616.628 231.189 617.104 231.189 617.6C231.189 618.096 230.992 618.572 230.641 618.922C230.29 619.273 229.815 619.47 229.319 619.47Z" fill="#251D2E"/>
<path d="M60.6211 356.12V278.87H116.881" stroke="#251D2E" stroke-width="4" stroke-linecap="round" stroke-linejoin="round"/>
<path d="M207.27 242.79H104.78C102.682 242.79 100.98 244.491 100.98 246.59V296.49C100.98 298.589 102.682 300.29 104.78 300.29H207.27C209.369 300.29 211.07 298.589 211.07 296.49V246.59C211.07 244.491 209.369 242.79 207.27 242.79Z" fill="#5E2BFF"/>
<path d="M201 260H191.41C190.914 260 190.438 259.803 190.087 259.452C189.737 259.102 189.54 258.626 189.54 258.13C189.54 257.634 189.737 257.158 190.087 256.808C190.438 256.457 190.914 256.26 191.41 256.26H201C201.496 256.26 201.971 256.457 202.322 256.808C202.673 257.158 202.87 257.634 202.87 258.13C202.87 258.626 202.673 259.102 202.322 259.452C201.971 259.803 201.496 260 201 260ZM183.18 260H178.69C178.194 260 177.718 259.803 177.367 259.452C177.017 259.102 176.82 258.626 176.82 258.13C176.82 257.634 177.017 257.158 177.367 256.808C177.718 256.457 178.194 256.26 178.69 256.26H183.18C183.676 256.26 184.151 256.457 184.502 256.808C184.853 257.158 185.05 257.634 185.05 258.13C185.05 258.626 184.853 259.102 184.502 259.452C184.151 259.803 183.676 260 183.18 260ZM170.46 260H162.2C161.704 260 161.228 259.803 160.877 259.452C160.527 259.102 160.33 258.626 160.33 258.13C160.33 257.634 160.527 257.158 160.877 256.808C161.228 256.457 161.704 256.26 162.2 256.26H170.43C170.926 256.26 171.401 256.457 171.752 256.808C172.103 257.158 172.3 257.634 172.3 258.13C172.3 258.626 172.103 259.102 171.752 259.452C171.401 259.803 170.926 260 170.43 260H170.46ZM153.25 260H141.25C140.754 260 140.278 259.803 139.927 259.452C139.577 259.102 139.38 258.626 139.38 258.13C139.38 257.634 139.577 257.158 139.927 256.808C140.278 256.457 140.754 256.26 141.25 256.26H153.25C153.746 256.26 154.221 256.457 154.572 256.808C154.923 257.158 155.12 257.634 155.12 258.13C155.12 258.626 154.923 259.102 154.572 259.452C154.221 259.803 153.746 260 153.25 260ZM133 260H128.51C128.014 260 127.538 259.803 127.187 259.452C126.837 259.102 126.64 258.626 126.64 258.13C126.64 257.634 126.837 257.158 127.187 256.808C127.538 256.457 128.014 256.26 128.51 256.26H133C133.496 256.26 133.971 256.457 134.322 256.808C134.673 257.158 134.87 257.634 134.87 258.13C134.87 258.626 134.673 259.102 134.322 259.452C133.971 259.803 133.496 260 133 260ZM120.28 260H112.05C111.554 260 111.078 259.803 110.727 259.452C110.377 259.102 110.18 258.626 110.18 258.13C110.18 257.634 110.377 257.158 110.727 256.808C111.078 256.457 111.554 256.26 112.05 256.26H120.28C120.776 256.26 121.251 256.457 121.602 256.808C121.953 257.158 122.15 257.634 122.15 258.13C122.15 258.626 121.953 259.102 121.602 259.452C121.251 259.803 120.776 260 120.28 260Z" fill="#251D2E"/>
<path d="M153.221 286.26H141.221C140.725 286.26 140.25 286.063 139.899 285.712C139.548 285.362 139.351 284.886 139.351 284.39C139.351 283.894 139.548 283.418 139.899 283.068C140.25 282.717 140.725 282.52 141.221 282.52H153.221C153.717 282.52 154.193 282.717 154.544 283.068C154.894 283.418 155.091 283.894 155.091 284.39C155.091 284.886 154.894 285.362 154.544 285.712C154.193 286.063 153.717 286.26 153.221 286.26ZM133.011 286.26H128.521C128.025 286.26 127.55 286.063 127.199 285.712C126.848 285.362 126.651 284.886 126.651 284.39C126.651 283.894 126.848 283.418 127.199 283.068C127.55 282.717 128.025 282.52 128.521 282.52H133.001C133.497 282.52 133.973 282.717 134.324 283.068C134.674 283.418 134.871 283.894 134.871 284.39C134.871 284.886 134.674 285.362 134.324 285.712C133.973 286.063 133.497 286.26 133.001 286.26H133.011ZM120.291 286.26H112.061C111.565 286.26 111.09 286.063 110.739 285.712C110.388 285.362 110.191 284.886 110.191 284.39C110.191 283.894 110.388 283.418 110.739 283.068C111.09 282.717 111.565 282.52 112.061 282.52H120.291C120.787 282.52 121.263 282.717 121.614 283.068C121.964 283.418 122.161 283.894 122.161 284.39C122.161 284.886 121.964 285.362 121.614 285.712C121.263 286.063 120.787 286.26 120.291 286.26Z" fill="#251D2E"/>
<path d="M201.691 267.08H110.831C110.389 267.08 110.031 267.438 110.031 267.88V274.15C110.031 274.592 110.389 274.95 110.831 274.95H201.691C202.133 274.95 202.491 274.592 202.491 274.15V267.88C202.491 267.438 202.133 267.08 201.691 267.08Z" fill="#251D2E"/>
<path d="M187.5 319.5L334.26 319" stroke="#251D2E" stroke-width="3.57" stroke-linecap="round" stroke-linejoin="round" stroke-dasharray="10.71 18.75"/>
</svg>
