<svg width="1000" height="1000" viewBox="0 0 1000 1000" fill="none" xmlns="http://www.w3.org/2000/svg">
<g clip-path="url(#clip0_433_1166)">
<path d="M514.806 885.017C695.511 885.017 842 654.873 842 492.271C842 329.669 700.24 168.482 519.534 168.482C338.828 168.482 187.611 329.648 187.611 492.25C187.611 654.852 334.1 885.017 514.806 885.017Z" fill="#E9E8E8"/>
<path d="M617.186 842.293C613.903 842.293 610.515 842.293 607.023 842.232C603.365 842.232 599.586 842.171 595.701 842.171H419.267C415.383 842.171 411.603 842.171 407.945 842.232C404.462 842.232 401.065 842.293 397.782 842.293C379.554 842.293 366.046 841.318 355.03 836.493C341.844 830.701 333.667 831.633 330.044 814.903C328.371 806.571 327.592 798.084 327.718 789.586V737.55C327.856 726.83 330.047 716.234 334.172 706.338C345.18 678.748 371.402 648.623 404.314 625.762C425.389 611.14 445.246 602.405 457.377 602.405C461.009 602.405 463.682 599.488 464.954 597.746C467.567 594.097 469.143 588.915 469.143 583.541C469.143 573.483 463.648 564.669 457.377 564.669C440.099 564.669 407.736 546.859 380.347 522.335C376.567 518.947 372.892 515.429 369.408 511.884C350.396 492.524 327.736 462.487 327.736 429.567V377.531C327.736 349.872 334.05 341.459 347.61 331.87C360.673 322.656 378.788 321.89 397.808 321.89C401.091 321.89 404.479 321.89 407.963 321.951C411.629 321.951 415.409 322.012 419.284 322.012H595.693C599.577 322.012 603.357 322.012 607.014 321.951C610.498 321.951 613.894 321.89 617.169 321.89C636.189 321.89 654.339 322.656 667.376 331.87C680.927 341.45 687.25 349.863 687.25 377.531V429.576C687.25 448.03 680.082 467.573 665.948 487.647C652.205 507.19 632.279 526.454 609.836 541.895C589.091 556.169 569.566 564.695 557.582 564.695C553.959 564.695 551.286 567.604 550.023 569.337C547.358 572.995 545.834 578.168 545.834 583.559C545.834 593.609 551.321 602.431 557.582 602.431C569.731 602.431 589.57 611.14 610.637 625.789C619.016 631.613 627.026 637.951 634.622 644.765C649.967 658.525 670.442 680.385 680.779 706.364C685.038 717.041 687.206 727.526 687.206 737.542V789.586C687.328 798.084 686.549 806.57 684.881 814.903C681.258 831.633 673.08 830.701 659.886 836.493C648.922 841.326 635.414 842.293 617.186 842.293Z" fill="white"/>
<path d="M677.735 354.095C679.238 361.814 679.938 369.668 679.825 377.531V429.576C679.825 447.865 671.873 466.336 659.881 483.371C630.889 524.59 578.304 557.258 557.612 557.258C552.317 557.258 547.518 560.201 544.043 564.956C540.281 570.415 538.317 576.913 538.426 583.541C538.426 598.059 547.022 609.834 557.586 609.834C568.15 609.834 586.752 618.229 606.356 631.867C614.484 637.512 622.253 643.658 629.618 650.269C648.342 667.06 665.324 687.613 673.859 709.098C677.613 718.11 679.615 727.754 679.755 737.516V789.56C679.829 796.543 679.299 803.518 678.17 810.409" stroke="#261D2E" stroke-width="3.48358" stroke-linecap="round" stroke-linejoin="round"/>
<path d="M337.327 813.327C335.772 805.511 335.048 797.554 335.167 789.586V737.55C335.306 727.785 337.31 718.137 341.071 709.124C353.125 678.913 381.751 650.513 408.557 631.893C428.213 618.255 446.876 609.86 457.379 609.86C462.683 609.86 467.473 606.916 470.957 602.161C474.727 596.693 476.691 590.182 476.574 583.541C476.574 569.015 467.978 557.24 457.414 557.24C442.792 557.24 412.241 540.928 385.348 516.813C381.734 513.565 378.189 510.186 374.749 506.685C361.032 492.698 349.127 476.796 342.056 460.283" stroke="#261D2E" stroke-width="3.48358" stroke-linecap="round" stroke-linejoin="round"/>
<path d="M673.926 343.592H341.061C337.119 343.592 333.337 342.026 330.55 339.238C327.762 336.45 326.195 332.669 326.195 328.726C326.195 324.783 327.762 321.002 330.55 318.214C333.337 315.426 337.119 313.86 341.061 313.86H673.926C677.869 313.86 681.65 315.426 684.438 318.214C687.226 321.002 688.792 324.783 688.792 328.726C688.792 332.669 687.226 336.45 684.438 339.238C681.65 342.026 677.869 343.592 673.926 343.592Z" fill="#261D2E"/>
<path d="M673.926 849.312H341.061C337.119 849.312 333.337 847.746 330.55 844.958C327.762 842.17 326.195 838.389 326.195 834.446C326.195 830.503 327.762 826.722 330.55 823.934C333.337 821.146 337.119 819.58 341.061 819.58H673.926C677.869 819.58 681.65 821.146 684.438 823.934C687.226 826.722 688.792 830.503 688.792 834.446C688.792 838.389 687.226 842.17 684.438 844.958C681.65 847.746 677.869 849.312 673.926 849.312Z" fill="#261D2E"/>
<path d="M504.931 683.154C497.093 655.921 493.487 563.633 477.863 552.851C433.056 536.704 400.493 516.343 388.832 497.897C377.17 479.452 401.312 465.082 413.356 452.611C431.81 434.705 467.97 429.828 497.398 433.556C512.455 435.951 528.149 445.557 543.137 453.177C555.956 459.561 569.743 462.67 585.262 462.67C599.971 463.175 622.832 454.649 628.337 459.796C633.841 464.943 638.927 486.193 618.469 509.106C598.012 532.019 563.603 542.113 542.37 551.283C520.041 557.379 529.02 644.861 514.293 683.102C512.516 687.665 506.298 687.892 504.931 683.154Z" fill="#5E2BFF"/>
<path d="M344.885 804.409C342.734 786.703 357.078 776.941 364.219 772.386C410.568 742.775 444.089 749.978 502.073 761.456C538.285 768.624 560.536 739.457 610.465 751.815C632.028 757.154 644.926 785.449 659.966 782.297C675.007 779.144 671.157 795.656 670.121 804.304V804.443L344.885 804.409Z" fill="#5E2BFF"/>
<path d="M514.926 718.835C511.32 731.803 499.25 709.787 506.922 700.181C510.467 695.46 516.293 699.31 516.049 704.997C516.537 709.639 515.762 714.307 514.926 718.835Z" fill="#5E2BFF"/>
<path d="M422.35 463.358C454.503 488.074 495.609 452.698 559.333 468.218" stroke="#261D2E" stroke-width="3.48358" stroke-linecap="round" stroke-linejoin="round"/>
<path d="M610.465 755.77C550.016 746.077 532.851 777.542 482.923 781.026C432.994 784.509 409.768 773.118 409.768 773.118" stroke="#261D2E" stroke-width="3.48358" stroke-linecap="round" stroke-linejoin="round"/>
</g>
<defs>
<clipPath id="clip0_433_1166">
<rect width="684" height="769" fill="white" transform="translate(158 115)"/>
</clipPath>
</defs>
</svg>
