<svg width="1000" height="1000" viewBox="0 0 1000 1000" fill="none" xmlns="http://www.w3.org/2000/svg">
<path d="M763.529 416.613C692.469 330.603 543.249 107.453 351.879 196.683C160.509 285.913 -53.4107 817.203 365.539 817.813C522.929 818.043 749.599 838.593 816.009 778.463C926.379 678.553 807.879 470.303 763.529 416.613Z" fill="#E9E8E8"/>
<path d="M188.23 342.47H191.23" stroke="#261D2E" stroke-width="4" stroke-miterlimit="10" stroke-linecap="round"/>
<path d="M196.74 342.47H249.13" stroke="#261D2E" stroke-width="4" stroke-miterlimit="10" stroke-linecap="round" stroke-dasharray="5.51 5.51"/>
<path d="M251.879 342.47H254.879" stroke="#261D2E" stroke-width="4" stroke-miterlimit="10" stroke-linecap="round"/>
<path d="M190.33 492.59C145.92 492.59 145.92 494.59 101.52 494.59C57.1199 494.59 57.1098 494.36 12.7098 494.36C11.2198 494.36 11.0898 492.79 11.0898 491.29C11.0898 449.83 10.3798 449.83 10.3798 408.37C10.3798 366.91 9.83984 366.91 9.83984 325.45C9.83984 323.96 11.2198 321.45 12.7098 321.45C57.1098 321.45 57.1099 322.52 101.52 322.52C145.93 322.52 145.92 323.11 190.33 323.11C190.668 323.073 191.009 323.105 191.334 323.206C191.659 323.306 191.959 323.472 192.217 323.693C192.475 323.915 192.685 324.186 192.833 324.492C192.981 324.798 193.065 325.131 193.08 325.47C193.08 366.93 191.79 366.93 191.79 408.39C191.79 449.85 192.14 449.85 192.14 491.31C192.14 492.75 191.82 492.59 190.33 492.59Z" fill="white"/>
<path d="M190.33 492.59C145.92 492.59 145.92 494.59 101.52 494.59C57.1199 494.59 57.1098 494.36 12.7098 494.36C11.2198 494.36 11.0898 492.79 11.0898 491.29C11.0898 449.83 10.3798 449.83 10.3798 408.37C10.3798 366.91 9.83984 366.91 9.83984 325.45C9.83984 323.96 11.2198 321.45 12.7098 321.45C57.1098 321.45 57.1099 322.52 101.52 322.52C145.93 322.52 145.92 323.11 190.33 323.11C190.668 323.073 191.009 323.105 191.334 323.206C191.659 323.306 191.959 323.472 192.217 323.693C192.475 323.915 192.685 324.186 192.833 324.492C192.981 324.798 193.065 325.131 193.08 325.47C193.08 366.93 191.79 366.93 191.79 408.39C191.79 449.85 192.14 449.85 192.14 491.31C192.14 492.75 191.82 492.59 190.33 492.59Z" stroke="#261D2E" stroke-width="4" stroke-miterlimit="10" stroke-linecap="round"/>
<path d="M474.531 572C437.071 572 437.071 574.17 399.601 574.17C362.131 574.17 362.141 571.67 324.671 571.67C287.201 571.67 287.201 571.84 249.741 571.84C247.291 571.84 243.031 571.05 243.031 568.6C243.031 528.35 245.231 528.35 245.231 488.11C245.231 447.87 244.581 447.86 244.581 407.61C244.581 367.36 243.931 367.36 243.931 327.12C243.931 324.67 247.291 321.54 249.741 321.54C287.201 321.54 287.201 320.95 324.671 320.95C362.141 320.95 362.131 323.25 399.601 323.25C437.071 323.25 437.071 324.25 474.531 324.25C476.981 324.25 479.961 324.63 479.961 327.08C479.961 367.32 479.471 367.32 479.471 407.57C479.471 447.82 477.001 447.89 477.001 488.13C477.001 528.37 479.001 528.38 479.001 568.63C479.001 571.08 477.001 572 474.531 572Z" fill="#5E2BFF"/>
<path d="M357.541 475.06C374.016 475.06 387.371 461.705 387.371 445.23C387.371 428.755 374.016 415.4 357.541 415.4C341.066 415.4 327.711 428.755 327.711 445.23C327.711 461.705 341.066 475.06 357.541 475.06Z" fill="#261D2E"/>
<path d="M345.039 448.36L351.289 454.61L370.029 435.86" stroke="white" stroke-width="3.96" stroke-miterlimit="10" stroke-linecap="round"/>
<path d="M167.97 350.82H36.0703V369.18H167.97V350.82Z" fill="#261D2E"/>
<path d="M120.07 510.42C102.26 510.42 102.26 511.32 84.4402 511.32C66.6202 511.32 66.6202 511.46 48.8002 511.46C30.9802 511.46 30.9802 511.83 13.1602 511.83" stroke="#261D2E" stroke-width="4" stroke-miterlimit="10" stroke-linecap="round"/>
<path d="M71.2695 525.63C56.7995 525.63 56.7995 526.33 42.2695 526.33C27.7395 526.33 27.7895 526.56 13.2695 526.56" stroke="#261D2E" stroke-width="4" stroke-miterlimit="10" stroke-linecap="round"/>
<path d="M578.491 329.78C558.131 329.78 558.131 330.78 537.761 330.78C517.391 330.78 517.401 331.11 497.031 331.11" stroke="#261D2E" stroke-width="4" stroke-miterlimit="10" stroke-linecap="round"/>
<path d="M547.731 354.61C522.381 354.61 522.381 355.22 497.031 355.22" stroke="#261D2E" stroke-width="4" stroke-miterlimit="10" stroke-linecap="round"/>
<path d="M142.18 393.59C124.36 393.59 124.36 394.49 106.54 394.49C88.7195 394.49 88.7195 394.63 70.8995 394.63C53.0795 394.63 53.0895 395 35.2695 395" stroke="#261D2E" stroke-width="4" stroke-miterlimit="10" stroke-linecap="round"/>
<path d="M93.3797 416C78.8997 416 78.8997 416.7 64.3797 416.7C49.8597 416.7 49.8997 416.93 35.4297 416.93" stroke="#261D2E" stroke-width="4" stroke-miterlimit="10" stroke-linecap="round"/>
<path d="M182.081 514.91C195.966 514.91 207.221 503.654 207.221 489.77C207.221 475.885 195.966 464.63 182.081 464.63C168.197 464.63 156.941 475.885 156.941 489.77C156.941 503.654 168.197 514.91 182.081 514.91Z" fill="white" stroke="#261D2E" stroke-width="4" stroke-miterlimit="10" stroke-linecap="round"/>
<path d="M172.661 497.99L180.421 495.88L186.561 501.07L186.951 493.04L193.791 488.81L186.271 485.95L184.361 478.14L179.321 484.41L171.301 483.81L175.701 490.54L172.661 497.99Z" fill="#261D2E"/>
<path d="M979.98 389.716L448.172 388.045C444.848 388.035 442.144 390.722 442.133 394.046L441.004 753.605C440.993 756.929 443.68 759.633 447.005 759.643L978.812 761.314C982.137 761.325 984.841 758.638 984.851 755.313L985.981 395.755C985.991 392.43 983.305 389.726 979.98 389.716Z" fill="#261D2E"/>
<path d="M974.936 751.319L976.041 399.511L451.984 397.864L450.878 749.673L974.936 751.319Z" fill="#5E2BFF"/>
<path d="M703.671 456.91H478.871C476.425 456.91 474.441 458.894 474.441 461.34V702.83C474.441 705.277 476.425 707.26 478.871 707.26H703.671C706.118 707.26 708.101 705.277 708.101 702.83V461.34C708.101 458.894 706.118 456.91 703.671 456.91Z" fill="white"/>
<path d="M694.461 478.37H697.461" stroke="#261D2E" stroke-width="4" stroke-miterlimit="10" stroke-linecap="round"/>
<path d="M702.969 478.37H755.359" stroke="#261D2E" stroke-width="4" stroke-miterlimit="10" stroke-linecap="round" stroke-dasharray="5.51 5.51"/>
<path d="M758.121 478.37H761.121" stroke="#261D2E" stroke-width="4" stroke-miterlimit="10" stroke-linecap="round"/>
<path d="M703.66 707.72C684.93 707.72 684.931 707.16 666.201 707.16C647.471 707.16 647.47 707.04 628.74 707.04C610.01 707.04 610.001 707.44 591.271 707.44C572.541 707.44 572.54 706.92 553.81 706.92C535.08 706.92 535.071 707.58 516.341 707.58C497.611 707.58 497.6 707 478.87 707C478.298 707.034 477.724 706.952 477.183 706.761C476.642 706.569 476.144 706.271 475.72 705.884C475.296 705.498 474.954 705.03 474.714 704.509C474.473 703.988 474.34 703.423 474.32 702.85C474.32 685.61 474.651 685.61 474.651 668.36C474.651 651.11 474.48 651.11 474.48 633.87C474.48 616.63 474.25 616.62 474.25 599.37C474.25 582.12 474.1 582.12 474.1 564.87C474.1 547.62 474.69 547.62 474.69 530.37C474.69 513.12 473.98 513.12 473.98 495.87C473.98 478.62 474.42 478.62 474.42 461.37C474.428 460.802 474.55 460.241 474.78 459.721C475.01 459.202 475.343 458.734 475.759 458.347C476.175 457.96 476.666 457.662 477.2 457.47C477.735 457.278 478.303 457.196 478.87 457.23C497.6 457.23 497.601 456.86 516.331 456.86C535.061 456.86 535.06 457.02 553.8 457.02C572.54 457.02 572.53 457.22 591.26 457.22H628.72C647.46 457.22 647.46 457.27 666.19 457.27C684.92 457.27 684.93 457.2 703.66 457.2C706.11 457.2 708.44 458.94 708.44 461.39C708.44 478.64 708.29 478.64 708.29 495.88C708.29 513.12 708.081 513.13 708.081 530.38C708.081 547.63 707.98 547.63 707.98 564.88C707.98 582.13 708.18 582.12 708.18 599.37C708.18 616.62 707.61 616.62 707.61 633.87C707.61 651.12 707.8 651.12 707.8 668.37C707.8 685.62 708.461 685.62 708.461 702.87C708.384 704.123 707.855 705.305 706.972 706.197C706.089 707.089 704.912 707.63 703.66 707.72Z" fill="white"/>
<path d="M703.66 707.72C684.93 707.72 684.931 707.16 666.201 707.16C647.471 707.16 647.47 707.04 628.74 707.04C610.01 707.04 610.001 707.44 591.271 707.44C572.541 707.44 572.54 706.92 553.81 706.92C535.08 706.92 535.071 707.58 516.341 707.58C497.611 707.58 497.6 707 478.87 707C478.298 707.034 477.724 706.952 477.183 706.761C476.642 706.569 476.144 706.271 475.72 705.884C475.296 705.498 474.954 705.03 474.714 704.509C474.473 703.988 474.34 703.423 474.32 702.85C474.32 685.61 474.651 685.61 474.651 668.36C474.651 651.11 474.48 651.11 474.48 633.87C474.48 616.63 474.25 616.62 474.25 599.37C474.25 582.12 474.1 582.12 474.1 564.87C474.1 547.62 474.69 547.62 474.69 530.37C474.69 513.12 473.98 513.12 473.98 495.87C473.98 478.62 474.42 478.62 474.42 461.37C474.428 460.802 474.55 460.241 474.78 459.721C475.01 459.202 475.343 458.734 475.759 458.347C476.175 457.96 476.666 457.662 477.2 457.47C477.735 457.278 478.303 457.196 478.87 457.23C497.6 457.23 497.601 456.86 516.331 456.86C535.061 456.86 535.06 457.02 553.8 457.02C572.54 457.02 572.53 457.22 591.26 457.22H628.72C647.46 457.22 647.46 457.27 666.19 457.27C684.92 457.27 684.93 457.2 703.66 457.2C706.11 457.2 708.44 458.94 708.44 461.39C708.44 478.64 708.29 478.64 708.29 495.88C708.29 513.12 708.081 513.13 708.081 530.38C708.081 547.63 707.98 547.63 707.98 564.88C707.98 582.13 708.18 582.12 708.18 599.37C708.18 616.62 707.61 616.62 707.61 633.87C707.61 651.12 707.8 651.12 707.8 668.37C707.8 685.62 708.461 685.62 708.461 702.87C708.384 704.123 707.855 705.305 706.972 706.197C706.089 707.089 704.912 707.63 703.66 707.72Z" stroke="#261D2E" stroke-width="4" stroke-miterlimit="10" stroke-linecap="round"/>
<path d="M513.801 541.39C552.801 541.39 552.801 540.79 591.801 540.79C630.801 540.79 630.801 541.69 669.801 541.69" fill="white"/>
<path d="M513.801 541.39C552.801 541.39 552.801 540.79 591.801 540.79C630.801 540.79 630.801 541.69 669.801 541.69" stroke="#261D2E" stroke-width="4" stroke-miterlimit="10" stroke-linecap="round"/>
<path d="M513.801 570.19C552.801 570.19 552.801 570.24 591.801 570.24C630.801 570.24 630.801 570.47 669.801 570.47" fill="white"/>
<path d="M513.801 570.19C552.801 570.19 552.801 570.24 591.801 570.24C630.801 570.24 630.801 570.47 669.801 570.47" stroke="#261D2E" stroke-width="4" stroke-miterlimit="10" stroke-linecap="round"/>
<path d="M513.801 599.86C552.801 599.86 552.801 599.86 591.801 599.86C630.801 599.86 630.801 597.32 669.801 597.32" fill="white"/>
<path d="M513.801 599.86C552.801 599.86 552.801 599.86 591.801 599.86C630.801 599.86 630.801 597.32 669.801 597.32" stroke="#261D2E" stroke-width="4" stroke-miterlimit="10" stroke-linecap="round"/>
<path d="M515.32 627C561.25 627 561.25 626.88 607.18 626.88Z" fill="white"/>
<path d="M515.32 627C561.25 627 561.25 626.88 607.18 626.88" stroke="#261D2E" stroke-width="4" stroke-miterlimit="10" stroke-linecap="round"/>
<path d="M673.799 490.32H511.27V508.68H673.799V490.32Z" fill="#261D2E"/>
<path d="M937.5 456.91H759.88C758.389 456.91 757.18 458.119 757.18 459.61V625.45C757.18 626.941 758.389 628.15 759.88 628.15H937.5C938.991 628.15 940.2 626.941 940.2 625.45V459.61C940.2 458.119 938.991 456.91 937.5 456.91Z" fill="white"/>
<path d="M937.5 626.93C893.1 626.93 893.1 629.11 848.69 629.11C804.28 629.11 804.29 628.94 759.89 628.94C758.39 628.94 756.52 626.94 756.52 625.45C756.52 583.99 758.59 583.99 758.59 542.53C758.59 501.07 757.78 501.07 757.78 459.61C757.78 458.12 758.39 455.89 759.89 455.89C804.29 455.89 804.29 455.64 848.69 455.64C893.09 455.64 893.1 456.04 937.5 456.04C939 456.04 940.5 458.12 940.5 459.61C940.5 501.07 940.31 501.07 940.31 542.53C940.31 583.99 939 584 939 625.45C939 626.94 939 626.93 937.5 626.93Z" fill="white"/>
<path d="M937.5 626.93C893.1 626.93 893.1 629.11 848.69 629.11C804.28 629.11 804.29 628.94 759.89 628.94C758.39 628.94 756.52 626.94 756.52 625.45C756.52 583.99 758.59 583.99 758.59 542.53C758.59 501.07 757.78 501.07 757.78 459.61C757.78 458.12 758.39 455.89 759.89 455.89C804.29 455.89 804.29 455.64 848.69 455.64C893.09 455.64 893.1 456.04 937.5 456.04C939 456.04 940.5 458.12 940.5 459.61C940.5 501.07 940.31 501.07 940.31 542.53C940.31 583.99 939 584 939 625.45C939 626.94 939 626.93 937.5 626.93Z" stroke="#261D2E" stroke-width="4" stroke-miterlimit="10" stroke-linecap="round"/>
<path d="M708.991 724.71C723.041 724.71 734.431 713.32 734.431 699.27C734.431 685.22 723.041 673.83 708.991 673.83C694.941 673.83 683.551 685.22 683.551 699.27C683.551 713.32 694.941 724.71 708.991 724.71Z" fill="#261D2E"/>
<path d="M698.34 701.93L703.66 707.26L719.64 691.28" stroke="white" stroke-width="2.83" stroke-miterlimit="10" stroke-linecap="round"/>
<path d="M960.95 425.2L463.75 423.68" stroke="#261D2E" stroke-width="4" stroke-miterlimit="10" stroke-linecap="round"/>
<path d="M467.3 414.62C469.681 414.62 471.61 412.69 471.61 410.31C471.61 407.93 469.681 406 467.3 406C464.92 406 462.99 407.93 462.99 410.31C462.99 412.69 464.92 414.62 467.3 414.62Z" fill="#261D2E"/>
<path d="M482.259 414.62C484.64 414.62 486.569 412.69 486.569 410.31C486.569 407.93 484.64 406 482.259 406C479.879 406 477.949 407.93 477.949 410.31C477.949 412.69 479.879 414.62 482.259 414.62Z" fill="white"/>
<path d="M497.23 406V407.33C498.025 407.331 498.788 407.647 499.35 408.21C499.627 408.486 499.846 408.816 499.993 409.178C500.141 409.54 500.215 409.929 500.21 410.32C500.21 411.116 499.894 411.879 499.331 412.441C498.769 413.004 498.006 413.32 497.21 413.32C496.414 413.32 495.651 413.004 495.089 412.441C494.526 411.879 494.21 411.116 494.21 410.32C494.21 409.524 494.526 408.761 495.089 408.199C495.651 407.636 496.414 407.32 497.21 407.32V406M497.21 406C496.101 406.053 495.056 406.531 494.29 407.335C493.525 408.138 493.098 409.205 493.098 410.315C493.098 411.425 493.525 412.492 494.29 413.295C495.056 414.099 496.101 414.577 497.21 414.63C498.318 414.577 499.364 414.099 500.129 413.295C500.895 412.492 501.322 411.425 501.322 410.315C501.322 409.205 500.895 408.138 500.129 407.335C499.364 406.531 498.318 406.053 497.21 406Z" fill="white"/>
<path d="M854.1 641.35C838.97 641.35 838.97 642.45 823.84 642.45C808.71 642.45 808.71 642.81 793.58 642.81C778.45 642.81 778.45 641.54 763.32 641.54" stroke="#261D2E" stroke-width="4" stroke-miterlimit="10" stroke-linecap="round"/>
<path d="M812.33 654.7C787.83 654.7 787.83 655.29 763.33 655.29" stroke="#261D2E" stroke-width="4" stroke-miterlimit="10" stroke-linecap="round"/>
<path d="M871.44 654.75C850.34 654.75 850.34 655.26 829.24 655.26" stroke="#261D2E" stroke-width="4" stroke-miterlimit="10" stroke-linecap="round"/>
<path d="M913.32 489.83H781.42V508.19H913.32V489.83Z" fill="#261D2E"/>
<path d="M887.529 532.6C869.709 532.6 869.709 533.51 851.889 533.51C834.069 533.51 834.069 533.64 816.249 533.64C798.429 533.64 798.429 534.01 780.609 534.01" stroke="#261D2E" stroke-width="4" stroke-miterlimit="10" stroke-linecap="round"/>
<path d="M838.73 555C824.25 555 824.25 555.7 809.73 555.7C795.21 555.7 795.25 555.93 780.73 555.93" stroke="#261D2E" stroke-width="4" stroke-miterlimit="10" stroke-linecap="round"/>
<path d="M937.179 634.63C951.064 634.63 962.319 623.375 962.319 609.49C962.319 595.606 951.064 584.35 937.179 584.35C923.295 584.35 912.039 595.606 912.039 609.49C912.039 623.375 923.295 634.63 937.179 634.63Z" fill="white" stroke="#261D2E" stroke-width="4" stroke-miterlimit="10" stroke-linecap="round"/>
<path d="M927.76 617.71L935.52 615.6L941.66 620.8L942.05 612.76L948.89 608.53L941.38 605.68L939.46 597.86L934.42 604.13L926.4 603.54L930.81 610.27L927.76 617.71Z" fill="#261D2E"/>
</svg>
